<svg xmlns="http://www.w3.org/2000/svg">
    <symbol id="add-content" viewBox="0 0 16 16">
        <title>plus-circle</title><path d="M8,0a8,8,0,1,0,8,8A8,8,0,0,0,8,0ZM9,9v4H7V9H3V7H7V3H9V7h4V9Z"/>
    </symbol>
    <symbol id="arrow-double-vertical" viewBox="0 0 8 11">
        <title>double-arrow-vertical</title><path d="M12,7,8,3,4,7ZM4,10l4,4,4-4Z" transform="translate(-4 -3)"/>
    </symbol>
    <symbol id="asset-library" viewBox="0 0 15.73 16">
        <title>drawer</title><path d="M14,0l1.05,8.93-1.18.14-.94-8H3l-.94,8L.91,8.93,2,0ZM4,2h8V3H4ZM4,4h8V5H4ZM4,6h8V7H4ZM4,8h8V9H4Zm11.5,2H.5a.34.34,0,0,0-.34.47l1.68,5.05A.74.74,0,0,0,2.5,16h11a.74.74,0,0,0,.66-.47l1.68-5.05A.34.34,0,0,0,15.5,10ZM10,12H6V11h4Z" transform="translate(-0.13)"/>
    </symbol>
    <symbol id="bold" viewBox="0 0 18 18">
         <title>bold</title>
         <path d="M11.5,7.6C12,7,12.3,6.3,12.3,5.4c0-1.7-1.4-3-3-3H4v1.3h1.2v9.5H4v1.2h6c2,0,3.6-1.6,3.6-3.6C13.5,9.4,12.7,8.1,11.5,7.6z M9.4,3.7c1,0,1.7,0.8,1.7,1.7s-0.8,1.7-1.7,1.7h-3V3.7H9.4z M10,13.2H6.4V8.4H10c1.4,0,2.4,1,2.4,2.4S11.3,13.2,10,13.2z"/>
    </symbol>
    <symbol id="card1" viewBox="0 0 16 16">
        <title>card1</title><path d="M14,1a.94.94,0,0,1,1,1V14a.94.94,0,0,1-1,1H2a.94.94,0,0,1-1-1V2A.94.94,0,0,1,2,1H14m0-1H2A2,2,0,0,0,0,2V14a2,2,0,0,0,2,2H14a2,2,0,0,0,2-2V2a2,2,0,0,0-2-2Z"/>
    </symbol>
    <symbol id="card2" viewBox="0 0 16 16">
        <title>card2</title><path d="M14,0H2A2,2,0,0,0,0,2V14a2,2,0,0,0,2,2H14a2,2,0,0,0,2-2V2A2,2,0,0,0,14,0ZM1,14V2A.94.94,0,0,1,2,1H7.5V15H2A.94.94,0,0,1,1,14Zm14,0a.94.94,0,0,1-1,1H8.5V1H14a.94.94,0,0,1,1,1Z"/>
    </symbol>
    <symbol id="card3" viewBox="0 0 16 16">
        <title>card3</title><path d="M14,0H2A2,2,0,0,0,0,2V14a2,2,0,0,0,2,2H14a2,2,0,0,0,2-2V2A2,2,0,0,0,14,0ZM1,14V2A.94.94,0,0,1,2,1H4.9V15H2A.94.94,0,0,1,1,14Zm14,0a.94.94,0,0,1-1,1H5.9V1H14a.94.94,0,0,1,1,1Z"/>
    </symbol>
    <symbol id="card4" viewBox="0 0 16 16">
        <title>card4</title><path d="M14,0H2A2,2,0,0,0,0,2V14a2,2,0,0,0,2,2H14a2,2,0,0,0,2-2V2A2,2,0,0,0,14,0ZM1,14V2A.94.94,0,0,1,2,1h8.1V15H2A.94.94,0,0,1,1,14Zm14,0a.94.94,0,0,1-1,1H11.1V1H14a.94.94,0,0,1,1,1Z"/>
    </symbol>
    <symbol id="card5" viewBox="0 0 16 16">
        <title>card5</title><path d="M14,0H2A2,2,0,0,0,0,2V14a2,2,0,0,0,2,2H14a2,2,0,0,0,2-2V2A2,2,0,0,0,14,0ZM10,1V15H6V1ZM1,14V2A.94.94,0,0,1,2,1H5V15H2A.94.94,0,0,1,1,14Zm14,0a.94.94,0,0,1-1,1H11V1h3a.94.94,0,0,1,1,1Z"/>
    </symbol>
    <symbol id="center" viewBox="0 0 16 14">
         <title>center</title> <path d="M0,1H16V3H0ZM3,4H13V6H3Zm0,6H13v2H3ZM0,7H16V9H0Zm0,6H16v2H0Z" transform="translate(0 -1)"/> 
    </symbol>
    <symbol id="chat" viewBox="0 0 16 16">
        <title>chat</title><path d="M14.5,3H4.5A1.5,1.5,0,0,0,3,4.5v7A1.5,1.5,0,0,0,4.5,13H6.93L9.5,16l2.57-3H14.5A1.5,1.5,0,0,0,16,11.5v-7A1.5,1.5,0,0,0,14.5,3ZM14,11H11.65L9.5,13.43,7.35,11H5V5h9ZM2,2v8H1.5A1.5,1.5,0,0,1,0,8.5v-7A1.5,1.5,0,0,1,1.5,0h10A1.5,1.5,0,0,1,13,1.5V2Z"/>
    </symbol>
    <symbol id="clear-formatting" viewBox="0 0 15.5 16">
         <title>clear-formatting</title> <path d="M0,14H9v2H0ZM14,2H9.3L6.4,13H4.3L7.2,2H3V0H14Zm.5,14-2-2-2,2-1-1,2-2-2-2,1-1,2,2,2-2,1,1-2,2,2,2Z"/> 
    </symbol>
    <symbol id="color-droplet" viewBox="0 0 11.97 16">
         <title>color-droplet</title> <path d="M13.51,7.39A18.34,18.34,0,0,0,8,0,18.35,18.35,0,0,0,2.49,7.39a6.63,6.63,0,0,0,.2,5.4,6,6,0,0,0,10.63,0A6.63,6.63,0,0,0,13.51,7.39Zm-2,4.47a4,4,0,0,1-5.92,1.35,4.84,4.84,0,0,0,.63,0,5.06,5.06,0,0,0,4.43-2.68,5.37,5.37,0,0,0,.37-3.82,11,11,0,0,1,.58,1.31,4.72,4.72,0,0,1-.08,3.79Z" transform="translate(-2.01)"/> 
    </symbol>
    <symbol id="copy" viewBox="0 0 18 18">
        <title>copy</title>
        <g transform="translate(2.000000, 0.000000)">                  
        <path d="M10.3,0.8 L4.8,0.8 C4,0.8 3.3,1.5 3.3,2.3 L3.3,12.8 C3.3,13.6 4,14.3 4.8,14.3 L12.3,14.3 C13.1,14.3 13.8,13.6 13.8,12.8 L13.8,4.2 L10.3,0.8 L10.3,0.8 Z M12.3,12.8 L4.8,12.8 L4.8,2.2 L9.3,2.2 L9.3,5.2 L12.3,5.2 L12.3,12.8 L12.3,12.8 Z"></path>
        <path d="M1.8,3.8 L0.2,3.8 L0.2,15.8 C0.2,16.6 0.9,17.3 1.7,17.3 L10.7,17.3 L10.7,15.8 L1.7,15.8 L1.7,3.8 L1.8,3.8 Z"></path>                    
        </g>
    </symbol>
    <symbol id="custom" viewBox="0 0 15 14">
        <title>custom</title><path d="M7.5,1,0,4v7l7.5,4L15,11V4ZM7,13.6,1,10.4V5.53l6,3.2Zm-5.7-9L7.5,2.08l6.2,2.48L7.5,7.87ZM14,10.4,8,13.6V8.73l6-3.2Z" transform="translate(0 -1)"/>
    </symbol>
    <symbol id="cut" viewBox="0 0 15 15.21">
        <title>cut</title><path d="M13.5,13a.8.8,0,0,1-.25.63.62.62,0,0,1-.44,0,2.57,2.57,0,0,1-1.48-1.18,2.82,2.82,0,0,1-.48-1.59.8.8,0,0,1,.25-.63.62.62,0,0,1,.44,0A2.57,2.57,0,0,1,13,11.43,2.82,2.82,0,0,1,13.5,13Zm-6-5A.5.5,0,1,1,8,7.5.5.5,0,0,1,7.5,8ZM3.67,12.51a2.58,2.58,0,0,1-1.48,1.18.62.62,0,0,1-.44,0A.8.8,0,0,1,1.5,13,2.82,2.82,0,0,1,2,11.43a2.58,2.58,0,0,1,1.48-1.18.62.62,0,0,1,.44,0,.8.8,0,0,1,.25.63A2.81,2.81,0,0,1,3.67,12.51Zm10.61-1.89c-1-1.63-2.83-2.35-4-1.6a1.85,1.85,0,0,0-.28.22L8.77,7.3l2.87-4.5A2.13,2.13,0,0,0,11.09.12L10.9,0,7.5,5.31,4.1,0,3.91.12A2.13,2.13,0,0,0,3.36,2.8L6.23,7.3,5,9.24A1.83,1.83,0,0,0,4.71,9c-1.16-.74-3,0-4,1.6s-.94,3.55.22,4.3,3,0,4-1.6l2.57-4,2.57,4c1,1.63,2.83,2.34,4,1.6S15.32,12.25,14.28,10.62Z"/>
    </symbol>
    <symbol id="find-replace" viewBox="0 0 16 16">
        <title>find-replace</title><path d="M1,0H7V1H1ZM9,0h6V1H9Zm5.88,5H14V1H10V5H6V1H2V5H1.13A1.13,1.13,0,0,0,0,6.13v8.75A1.13,1.13,0,0,0,1.13,16H5.88A1.13,1.13,0,0,0,7,14.88V9H9v5.88A1.13,1.13,0,0,0,10.13,16h4.75A1.13,1.13,0,0,0,16,14.88V6.13A1.13,1.13,0,0,0,14.88,5ZM5.44,15H1.56a.5.5,0,1,1,0-1H5.44a.5.5,0,1,1,0,1ZM8.5,8h-1a.5.5,0,0,1,0-1h1a.5.5,0,0,1,0,1Zm5.94,7H10.56a.5.5,0,1,1,0-1h3.88a.5.5,0,1,1,0,1Z"/>
    </symbol>
    <symbol id="fpo-media" viewBox="0 0 16 16.01">
        <title>fpo-media</title><path d="M15,4H12.34c-.68,0-1.36,0-.69-1.21S12.77,0,10.12,0,7.94,1.63,8.6,2.79,8.58,4,7.9,4H5A1,1,0,0,0,4,5V8.22c0,.68.18,1.36-1,.7S0,7.8,0,10.45,1.86,12.63,3,12s1,0,1,.7V15a1,1,0,0,0,1,1H7.9c.68,0,1.36-.27.7-1.44s-1.13-2.8,1.52-2.8,2.19,1.63,1.52,2.8,0,1.44.7,1.44H15a1,1,0,0,0,1-1V5a1,1,0,0,0-1-1Z" transform="translate(0 0)"/>
    </symbol>
    <symbol id="grab-icon" viewBox="0 0 17.84 11.03">
         <title>grab-icon</title> <path d="M18.7,1.84v4h-4v-4Z" transform="translate(-0.86 -1.84)"/> <path d="M11.67,1.84v4h-4v-4Z" transform="translate(-0.86 -1.84)"/> <path d="M4.86,1.84v4h-4v-4Z" transform="translate(-0.86 -1.84)"/> <path d="M18.7,8.87v4h-4v-4Z" transform="translate(-0.86 -1.84)"/> <path d="M11.67,8.87v4h-4v-4Z" transform="translate(-0.86 -1.84)"/> <path d="M4.86,8.87v4h-4v-4Z" transform="translate(-0.86 -1.84)"/> 
    </symbol>
    <symbol id="help-info" viewBox="0 0 200 200">
        <title>help-info</title>
        <path d="M100.1,199.9c-55.3,0-99.9-45.5-99.9-100.6S44.8,0,100.1,0S200,44.3,200,99.4C201.2,154.4,155.5,199.9,100.1,199.9z M100.1,20.4c-44.5,0-80.6,35.9-80.6,80.2s36.1,80.2,80.6,80.2s80.6-37.1,80.6-81.4S144.6,20.4,100.1,20.4z"/><path d="M110.9,129.3H90.5V99.4h9.6c10.8,0,20.5-8.4,20.5-20.4c0-10.8-8.4-19.2-20.5-19.2s-19.3,8.4-19.3,20.4H60.4c0-21.5,18-39.5,39.7-39.5s39.7,18,39.7,39.5c0,18-13.2,34.7-30.1,38.3v10.8H110.9z"/><ellipse cx="100.1" cy="149.7" rx="12" ry="12"/>
    </symbol>
    <symbol id="image-media" viewBox="0 0 18 18">
        <title>image-media</title>
        <path d="M12.3,0.8H3.8c-0.8,0-1.5,0.7-1.5,1.5v13.5c0,0.8,0.7,1.5,1.5,1.5h10.5c0.8,0,1.5-0.7,1.5-1.5V4.2L12.3,0.8z     M3.8,15.8V2.3h7.5v3h3l0,10.5H3.8z"/><polygon points="9,12 7.5,10.5 5.2,13.5 12.8,13.5 10.5,9   "/>
    <circle cx="7.5" cy="8.3" r="1.5"/>
    </symbol>
    <symbol id="video-media" viewBox="0 0 22 22">
        <title>video-media</title>
        <path d="M18.8,7.5c-0.3-0.2-0.6-0.2-0.9,0l-2.3,1.2V7.3c0-1-0.8-1.8-1.8-1.8H5.5c-1,0-1.8,0.8-1.8,1.8v7.3   c0,1,0.8,1.8,1.8,1.8h8.2c1,0,1.8-0.8,1.8-1.8v-1.3l2.3,1.2c0.1,0.1,0.3,0.1,0.4,0.1c0.2,0,0.3,0,0.5-0.1c0.3-0.2,0.4-0.5,0.4-0.8   V8.2C19.2,7.9,19.1,7.6,18.8,7.5z M13.7,14.7H5.5V7.3h8.2L13.7,14.7z M17.4,12.3l-1.8-0.9v-0.7l1.8-0.9V12.3z"/>
    </symbol>
    <symbol id="audio-media" viewBox="0 0 18 18">
        <title>audio-media</title>
        <path xmlns="http://www.w3.org/2000/svg" d="M9,1.5C4.9,1.5,1.5,4.9,1.5,9v6.8c0,0.4,0.3,0.8,0.8,0.8h3c0.8,0,1.5-0.7,1.5-1.5v-3c0-0.8-0.7-1.5-1.5-1.5H3   V9c0-3.3,2.7-6,6-6s6,2.7,6,6v1.5h-2.2c-0.8,0-1.5,0.7-1.5,1.5v3c0,0.8,0.7,1.5,1.5,1.5h3c0.4,0,0.8-0.3,0.8-0.8V9   C16.5,4.9,13.1,1.5,9,1.5z M5.2,12l0,3H3v-3H5.2z M15,15h-2.2v-3H15V15z"/>
    </symbol>
    <symbol id="outdent" viewBox="0 0 19 19">
        <title>outdent</title>
        <rect x="4" y="3.4" width="12" height="1.4"/><rect x="7.9" y="6" width="8" height="1.4"/><rect x="7.9" y="8.7" width="8" height="1.4"/><rect x="7.9" y="11.4" width="8" height="1.4"/><rect x="4" y="14" width="12" height="1.4"/><polygon points="6.6,5.4 2.6,9.4 6.6,13.4"/>
    </symbol>
    <symbol id="indent" viewBox="0 0 19 19">
        <title>indent</title>
        <rect x="2.6" y="3.5" width="12" height="1.4"/><rect x="2.6" y="6.1" width="8" height="1.4"/><rect x="2.6" y="8.8" width="8" height="1.4"/><rect x="2.6" y="11.5" width="8" height="1.4"/><rect x="2.6" y="14.1" width="12" height="1.4"/><polygon points="12,13.5 16,9.5 12,5.5"/>
    </symbol>
    <symbol id="italic" viewBox="0 0 18 18">
         <title>italic</title>
         <polygon points="14.1,3.7 14.1,2.5 8,2.5 8,3.7 10.1,3.7 5.8,13.3 3.2,13.3 3.2,14.5 9.3,14.5 9.3,13.3 7.2,13.3 11.4,3.7"/>             
    </symbol>
    <symbol id="align-left" viewBox="0 0 19 19">
        <title>align-left</title>
        <rect x="2.6" y="3.4" width="12" height="1.4"/><rect x="2.6" y="6" width="9.4" height="1.4"/><rect x="2.6" y="8.7" width="13.4" height="1.4"/><rect x="2.6" y="11.4" width="9.4" height="1.4"/><rect x="2.6" y="14" width="12" height="1.4"/>
    </symbol>
    <symbol id="align-right" viewBox="0 0 19 19">
        <title>align-right</title>
        <rect x="4" y="3.4" width="12" height="1.4"/><rect x="6.6" y="6" width="9.4" height="1.4"/><rect x="2.6" y="8.7" width="13.4" height="1.4"/><rect x="6.6" y="11.4" width="9.4" height="1.4"/><rect x="4" y="14" width="12" height="1.4"/>
    </symbol>
    <symbol id="align-center" viewBox="0 0 19 19">
        <title>align-center</title>
        <rect x="3.3" y="3.4" width="12" height="1.4"/><rect x="4.6" y="6" width="9.4" height="1.4"/><rect x="2.6" y="8.7" width="13.4" height="1.4"/><rect x="4.6" y="11.4" width="9.4" height="1.4"/><rect x="3.3" y="14" width="12" height="1.4"/>
    </symbol>
    <symbol id="align-justify" viewBox="0 0 19 19">
        <title>align-justify</title>
        <rect x="2.6" y="3.4" width="13.4" height="1.4"/><rect x="2.6" y="6" width="13.4" height="1.4"/><rect x="2.6" y="8.7" width="13.4" height="1.4"/><rect x="2.6" y="11.4" width="13.4" height="1.4"/><rect x="2.6" y="14" width="9.4" height="1.4"/>
    </symbol>

    <symbol id="image" viewBox="0 0 18 18">
        <title>image</title>
        <path d="M11.6,2.6H4.9c-0.6,0-1.2,0.6-1.2,1.2v10.7c0,0.6,0.6,1.2,1.2,1.2h8.3c0.6,0,1.2-0.6,1.2-1.2V5.3L11.6,2.6z M4.9,14.5V3.8h5.9v2.4h2.4v8.3H4.9z"/><polygon points="9,11.5 7.8,10.3 6,12.7 12,12.7 10.2,9.1"/><circle cx="7.8" cy="8.6" r="1.2"/>
    </symbol>
    <symbol id="knife" viewBox="0 0 15.01 14.43">
        <title>knife</title><path d="M12.19,8.81H2.81a2.82,2.82,0,1,0,0,5.63h9.38a2.82,2.82,0,0,0,0-5.63ZM2.81,12.52a.94.94,0,1,1,.94-.94A.94.94,0,0,1,2.81,12.52ZM5.44,7.88,8.16,3.94A2.81,2.81,0,0,0,7.51,0h0L1.88,8a3.52,3.52,0,0,1,.93-.13Zm1.09,0h5.63A3.68,3.68,0,0,1,14.88,9.1a2.81,2.81,0,0,0-2.69-2.16h-5Z" transform="translate(0.01 -0.01)"/>
    </symbol>
    <symbol id="link" viewBox="0 0 18 18">
        <title>link</title>
        <path d="M4.3,11.6l0.9-0.9l-0.4-0.4c-0.2-0.2-0.2-0.6,0-0.9l5-5c0.1-0.1,0.2-0.2,0.4-0.2s0.3,0.1,0.4,0.2L11,4.8l0.9-0.9l-0.4-0.4c-0.7-0.7-1.8-0.7-2.5,0L4,8.7c-0.7,0.7-0.7,1.8,0,2.5L4.3,11.6z"/><path d="M14.8,6.9l-0.4-0.4l-0.9,0.9l0.4,0.4C14,7.9,14.1,8,14.1,8.2c0,0.2-0.1,0.3-0.2,0.4l-5,5c-0.2,0.2-0.6,0.2-0.9,0l-0.4-0.4l-0.9,0.9l0.4,0.4C7.4,14.8,7.9,15,8.4,15s0.9-0.2,1.3-0.5l5-5c0.3-0.4,0.6-0.8,0.6-1.3S15.1,7.3,14.8,6.9z"/><rect x="9.4" y="5.5" transform="matrix(0.7071 -0.7071 0.7071 0.7071 -0.672 10.5006)" width="5.9" height="1.2"/><rect x="3.5" y="11.4" transform="matrix(0.707 -0.7072 0.7072 0.707 -6.6072 8.0799)" width="5.9" height="1.2"/>
    </symbol>
    <symbol id="unlink" viewBox="0 0 20 20">
        <title>unlink</title>
        <path d="M12.9,3.8L12.9,3.8c-0.9-0.9-2.2-0.9-3,0L7.4,6.3l1.1,1L11,4.8c0.2-0.2,0.8-0.2,1,0L12.9,3.8z"/><path d="M15,7.7c0.2,0.2,0.2,0.8,0,1l-2.5,2.5l1,1L16,9.7c0.9-0.9,0.9-2.3,0-3L15,7.7z"/><path d="M4,12.7l1-1c-0.2-0.2-0.2-0.8,0-1l2.5-2.5l-1-0.9L4,9.8C3.1,10.6,3.1,11.9,4,12.7L4,12.7z"/><path d="M11.5,12.2L9,14.7c-0.2,0.2-0.8,0.2-1,0l-1,1c0.4,0.4,0.9,0.6,1.5,0.6c0.5,0,1.1-0.1,1.5-0.6l2.5-2.5L11.5,12.2z"/><rect x="9.9" y="5.6" transform="matrix(0.7071 -0.7071 0.7071 0.7071 -0.5414 11.363)" width="7" height="1.5"/><rect x="3" y="12.5" transform="matrix(0.7071 -0.7071 0.7071 0.7071 -7.4781 8.4827)" width="7" height="1.5"/><rect x="15.5" y="11.6" width="2" height="1.5"/><rect x="11.8" y="15.3" width="1.5" height="2"/><rect x="6.7" y="2.3" width="1.5" height="2"/><rect x="2.5" y="6.6" width="2" height="1.5"/>
    </symbol>
    <symbol id="edit" viewBox="0 0 18 18">
        <title>edit</title>
        <path d="M15,2.8C14.5,2.4,13.7,2,13,2s-1.4,0.3-2,0.8l-7.8,7.8l0,0c-0.1,0.1-0.2,0.2-0.2,0.3l-0.9,3.9c-0.1,0.3,0,0.5,0.2,0.7l0,0l0,0c0.2,0.2,0.4,0.3,0.7,0.2l3.9-0.9c0.1,0,0.3-0.2,0.3-0.2l0,0L15,6.8c0.5-0.5,0.8-1.2,0.8-2C15.7,4.1,15.4,3.4,15,2.8L15,2.8zM10.6,5.3l2,2L6.7,13l-2-2L10.6,5.3z M3.7,14.1l0.4-1.6l1.2,1.2L3.7,14.1z M14,3.8c0.5,0.5,0.5,1.4,0,2l-0.5,0.5l-2-2l0.5-0.5C12.5,3.3,13.4,3.3,14,3.8z"/>
    </symbol>
    <symbol id="magic" viewBox="0 0 24 24">
        <title>magic</title>
        <rect x="16.8" y="4.2" transform="matrix(0.7072 -0.707 0.707 0.7072 1.8089 14.9219)" width="4.3" height="2.2"/><rect x="19.4" y="9.4" transform="matrix(0.2588 -0.9659 0.9659 0.2588 4.0137 28.4161)" width="2.2" height="4.3"/><rect x="14.8" y="14" transform="matrix(0.9659 -0.2588 0.2588 0.9659 -3.6525 4.6758)" width="2.2" height="4.3"/><rect x="11.4" y="1.4" transform="matrix(0.966 -0.2587 0.2587 0.966 -0.491 3.3444)" width="2.2" height="4.3"/><rect x="6.7" y="6.1" transform="matrix(0.2585 -0.966 0.966 0.2585 -2.1663 13.6286)" width="2.2" height="4.3"/><rect x="-0.1" y="13.7" transform="matrix(0.7071 -0.7071 0.7071 0.7071 -8.3354 10.6677)" width="17.7" height="3.3"/>
    </symbol>
    <symbol id="external-link" viewBox="0 0 24 24">
        <title>external-link</title>
        <path d="M17.6,21.1H5c-1,0-1.8-0.8-1.8-1.8V6.6c0-1,0.8-1.8,1.8-1.8h6.4v1.8H5v12.6h12.6V13h1.8v6.4C19.4,20.3,18.6,21.1,17.6,21.1z"/><polygon points="18.2,4.9 12.1,11 13.3,12.3 19.4,6.2 19.4,9.1 21.2,9.1 21.2,3.1 15.3,3.1 15.3,4.9"/>
    </symbol>
    <symbol id="list-ul" viewBox="0 0 19 19">
         <title>list-ul</title>
         <path d="M5.4,3.4c-1.1,0-1.8,0.8-1.8,1.8s0.8,1.7,1.8,1.7s1.7-0.8,1.7-1.7S6.4,3.4,5.4,3.4z M5.4,5.8C5,5.8,4.8,5.5,4.8,5.2c0-0.3,0.2-0.6,0.6-0.6C5.7,4.6,6,4.9,6,5.2S5.7,5.8,5.4,5.8z"/><path d="M5.4,7.6c-1,0-1.8,0.8-1.8,1.8s0.8,1.8,1.8,1.8s1.8-0.8,1.8-1.8S6.4,7.6,5.4,7.6z M5.4,10c-0.3,0-0.6-0.3-0.6-0.6c0-0.3,0.2-0.6,0.6-0.6C5.7,8.8,6,9.1,6,9.4C6,9.7,5.7,10,5.4,10z"/><path d="M5.4,11.8c-1,0-1.8,0.8-1.8,1.8s0.8,1.8,1.8,1.8s1.8-0.8,1.8-1.8C7.1,12.5,6.4,11.8,5.4,11.8z M5.4,14.1c-0.3,0-0.6-0.3-0.6-0.6s0.3-0.6,0.6-0.6c0.3,0,0.6,0.3,0.6,0.6S5.7,14.1,5.4,14.1z"/><rect x="8.4" y="4.6" width="7.2" height="1.2"/><rect x="8.4" y="8.8" width="7.2" height="1.2"/><rect x="8.4" y="12.9" width="7.2" height="1.2"/>
    </symbol>
    <symbol id="list-ol" viewBox="0 0 18 18">
         <title>list-ol</title>
         <rect x="5.3" y="4.2" width="8.5" height="1.2"/><rect x="5.3" y="8.4" width="8.5" height="1.2"/><rect x="5.3" y="12.7" width="8.5" height="1.2"/><path d="M3,4.1v2.2h0.6v-3c0-0.2-0.1-0.2-0.2-0.3C3.2,2.9,3.2,3,3.1,3.1L2.2,4l0.5,0.5L3,4.1z"/><path d="M3.2,7.3c-0.5,0-0.9,0.4-0.9,0.9v0.3h0.6V8.2c0-0.2,0.2-0.3,0.3-0.3c0.2,0,0.3,0.2,0.3,0.3c0,0.3-0.6,1.1-1.1,1.6C2.3,9.9,2.3,10,2.3,10.1c0.1,0.1,0.2,0.2,0.2,0.2H4V9.7H3.3c0.4-0.5,0.8-1.1,0.8-1.5C4.1,7.8,3.7,7.3,3.2,7.3z"/><path d="M3.2,11.7H2.3v0.6h0.9c0.2,0,0.3,0.2,0.3,0.3s-0.2,0.3-0.3,0.3l0,0H2.8v0.6h0.3l0,0c0.2,0,0.3,0.2,0.3,0.3s-0.2,0.3-0.3,0.3h-1v0.6H3c0.5,0,0.9-0.4,0.9-0.9c0-0.2-0.1-0.5-0.2-0.6C3.9,13.3,4,13,4,12.8C4.1,12.1,3.7,11.7,3.2,11.7z"/>
    </symbol>
    <symbol id="menu-hamburger" viewBox="0 0 14 14">
        <title>menu-hamburger</title><path d="M1,1H15V4H1ZM1,6.5H15v3H1ZM1,12H15v3H1Z" transform="translate(-1 -1)"/>
    </symbol>
    <symbol id="menu-more-vertical" viewBox="0 0 4 14">
        <title>menu-dots-vertical</title><circle cx="2" cy="12" r="2"/><circle cx="2" cy="7" r="2"/><circle cx="2" cy="2" r="2"/>
    </symbol>
    <symbol id="minus" viewBox="0 0 16 4">
         <title>minus</title> <path d="M0,6.5v3a.47.47,0,0,0,.5.5h15a.47.47,0,0,0,.5-.5v-3a.47.47,0,0,0-.5-.5H.5A.47.47,0,0,0,0,6.5Z" transform="translate(0 -6)" fill="#424242"/> 
    </symbol>
    <symbol id="navigation" viewBox="0 0 15 15">
        <title>navigation</title><path d="M9.7,7.5,11,5.7V5h-.7L8.5,6.3,7.7,3H7.3L6.5,6.3,4.7,5H4v.7L5.3,7.5,2,8.3v.5l3.3.8L4,11.3V12h.7l1.8-1.3L7.3,14h.5l.8-3.3L10.4,12H11v-.7L9.7,9.5,13,8.7V8.3ZM7.5,9A.5.5,0,1,1,8,8.5.47.47,0,0,1,7.5,9Z" transform="translate(0 -1)"/><path d="M7.5,1A7.55,7.55,0,0,0,0,8.5,7.55,7.55,0,0,0,7.5,16,7.55,7.55,0,0,0,15,8.5,7.55,7.55,0,0,0,7.5,1Zm0,13.5a6,6,0,1,1,6-6A6,6,0,0,1,7.5,14.5Z" transform="translate(0 -1)"/>
    </symbol>
    <symbol id="omega-mathml" viewBox="0 0 16 16">
         <title>omega-mathml</title> <path d="M11,14h4l1-2v4H10V12.7A6.23,6.23,0,0,0,13.5,7,5.8,5.8,0,0,0,8,1,5.74,5.74,0,0,0,2.5,7,6.23,6.23,0,0,0,6,12.7V16H0V12l1,2H5v-.5A7.13,7.13,0,0,1,0,7C0,3.1,3.6,0,8,0s8,3.1,8,7a7.13,7.13,0,0,1-5,6.5Z"/> 
    </symbol>
    <symbol id="paste" viewBox="0 0 13.16 14">
        <title>paste</title><path d="M403,310.42h-2.63V313H396v-7.87h7Zm-1.74,2.26v-1.37h1.39Zm-8.74-9.26v-.87h7v.87Zm2.62-2.62h1.76v.82h-1.74Zm6.13,3.5v-2.15a.44.44,0,0,0-.44-.44h-3.06v-.87a.88.88,0,0,0-.88-.88h-1.74a.88.88,0,0,0-.87.88v.88h-3.06a.44.44,0,0,0-.44.44h0v8.74a.44.44,0,0,0,.44.44h3.93V314h6.16l2.63-2.62v-7Z" transform="translate(-390.75 -299.95)"/>
    </symbol>
    <symbol id="expand" viewBox="0 0 18 18">
        <title>expand</title>
        <polygon id="Shape" points="10.4,8.8 15.7,3.5 15.7,5.7 17.3,5.7 17.3,0.7 12.3,0.7 12.3,2.3 14.5,2.3 9.2,7.6"/>
        <polygon id="Shape_1_" points="5.7,15.7 3.5,15.7 8.8,10.4 7.6,9.2 2.3,14.5 2.3,12.3 0.7,12.3 0.7,17.3 5.7,17.3"/>
    </symbol>
    <symbol id="zoom-in" viewBox="0 0 20 20">
        <title>zoom-in</title>
        <polygon points="9.2,5 7.5,5 7.5,7.5 5,7.5 5,9.2 7.5,9.2 7.5,11.7 9.2,11.7 9.2,9.2 11.7,9.2 11.7,7.5 9.2,7.5   "/>
        <path d="M18.1,16.9l-4.5-4.5c0.9-1.2,1.4-2.6,1.4-4.1c0-1.8-0.7-3.5-2-4.7c-1.3-1.3-2.9-2-4.7-2s-3.5,0.7-4.7,2    c-1.3,1.3-2,2.9-2,4.7s0.7,3.5,2,4.7c1.3,1.3,2.9,2,4.7,2c1.5,0,2.9-0.5,4.1-1.4l4.5,4.5L18.1,16.9z M8.3,13.3    c-1.3,0-2.6-0.5-3.5-1.5c-0.9-0.9-1.5-2.2-1.5-3.5c0-1.3,0.5-2.6,1.5-3.5C5.7,3.9,7,3.3,8.3,3.3s2.6,0.5,3.5,1.5    c0.9,0.9,1.5,2.2,1.5,3.5c0,1.3-0.5,2.6-1.5,3.5C10.9,12.8,9.7,13.3,8.3,13.3z"/>
    </symbol>
    <symbol id="zoom-out" viewBox="0 0 20 20">
        <title>zoom-out</title>
        <rect xmlns="http://www.w3.org/2000/svg" x="5" y="7.5" width="6.7" height="1.7"/>
        <path d="M18.1,16.9l-4.5-4.5c0.9-1.2,1.4-2.6,1.4-4.1c0-1.8-0.7-3.5-2-4.7c-1.3-1.3-2.9-2-4.7-2s-3.5,0.7-4.7,2    c-1.3,1.3-2,2.9-2,4.7s0.7,3.5,2,4.7c1.3,1.3,2.9,2,4.7,2c1.5,0,2.9-0.5,4.1-1.4l4.5,4.5L18.1,16.9z M8.3,13.3    c-1.3,0-2.6-0.5-3.5-1.5c-0.9-0.9-1.5-2.2-1.5-3.5c0-1.3,0.5-2.6,1.5-3.5C5.7,3.9,7,3.3,8.3,3.3s2.6,0.5,3.5,1.5    c0.9,0.9,1.5,2.2,1.5,3.5c0,1.3-0.5,2.6-1.5,3.5C10.9,12.8,9.7,13.3,8.3,13.3z"/>
    </symbol>
    <symbol id="search" viewBox="0 0 21 21">
            <path d="M20.9,19.5l-5.7-5.7c1.2-1.5,1.8-3.3,1.8-5.2c0-2.3-0.9-4.4-2.6-6C12.8,1,10.6,0,8.4,0S4,0.9,2.5,2.4S0,6.2,0,8.5s0.9,4.4,2.6,6c1.6,1.6,3.8,2.6,6,2.6c2,0,3.7-0.6,5.2-1.8l5.7,5.7L20.9,19.5z M3.9,13.1c-1.2-1.2-1.8-2.8-1.8-4.5c0-1.8,0.6-3.4,1.8-4.6s2.8-1.8,4.5-1.8s3.4,0.6,4.6,1.8s1.8,2.8,1.8,4.5s-0.6,3.3-1.8,4.5s-2.8,1.8-4.5,1.8S5.1,14.3,3.9,13.1z"/>
    </symbol>
    <symbol id="strikethrough" viewBox="0 0 17 17">
         <title>strikethrough</title>
         <path d="M14.2,7.5h-12v1.3h6c1.1,0,1.9,0.9,1.9,1.9s-0.9,1.9-1.9,1.9H6.3V12H4.8v1.5c0,0.4,0.3,0.7,0.7,0.7h2.6c1.9,0,3.4-1.5,3.4-3.4c0-0.7-0.3-1.4-0.7-1.9h3.4V7.5z"/><path d="M6.3,6.3C6.3,6,6.3,5.8,6.3,5.6c0-1.1,0.9-1.9,1.9-1.9h1.3v0.7h1.3V2.9c0-0.4-0.3-0.7-0.7-0.7H8.2c-1.9,0-3.4,1.5-3.4,3.4c0,0.3,0,0.4,0.1,0.7H6.3z"/> 
    </symbol>
    <symbol id="tint" viewBox="0 0 16 16">
         <title>tint</title>
         <path d="M12.6,7.6C11.9,5.4,10.2,3.5,8.5,2C6.8,3.5,5.1,5.4,4.4,7.6c-0.5,1.3-0.5,2.8,0.2,4.1c0.8,1.5,2.3,2.4,4,2.4s3.2-1,4-2.4C13.2,10.3,13.1,8.9,12.6,7.6z M11.1,10.9c-0.5,1-1.5,1.6-2.6,1.6c-0.7,0-1.3-0.2-1.8-0.6c0.2,0,0.3,0,0.4,0c1.4,0,2.7-0.8,3.3-2c0.5-1,0.5-2,0.3-2.9c0.1,0.3,0.3,0.7,0.4,1C11.5,8.8,11.7,9.9,11.1,10.9L11.1,10.9z"/>
    </symbol>        
    <symbol id="subscript" viewBox="0 0 13.6 12">
         <title>subscript</title> <path d="M12,14.2V15h2v1H11V13.7l2-.9V12H11V11h3v2.3ZM10.6,4H8.4L5.5,6.9,2.6,4H.4l4,4-4,4H2.5L5.4,9.1l3,2.9h2.1l-4-4Z" transform="translate(-0.4 -4)"/> 
    </symbol>
    <symbol id="superscript" viewBox="0 0 13.6 12">
         <title>superscript</title> <path d="M12,3.2V4h2V5H11V2.7l2-.9V1H11V0h3V2.3ZM10.6,4H8.4L5.5,6.9,2.6,4H.4l4,4-4,4H2.5L5.4,9.1l3,2.9h2.1l-4-4Z" transform="translate(-0.4)"/> 
    </symbol>
    <symbol id="table" viewBox="0 0 16 14">
        <title>table</title><path d="M0,1V15H16V1Zm6,9V7h4v3Zm4,1v3H6V11Zm0-8V6H6V3ZM5,3V6H1V3ZM1,7H5v3H1ZM11,7h4v3H11Zm0-1V3h4V6ZM1,11H5v3H1Zm10,3V11h4v3Z" transform="translate(0 -1)"/>
    </symbol>
    <symbol id="text-element" viewBox="0 0 16 16">
        <title>text-element</title><path d="M2.4,0H0V4H.8A2.2,2.2,0,0,1,3.2,1.6H6.4V14.4c0,.8-1.6.8-2.4.8V16h8v-.8c-.8,0-2.4,0-2.4-.8V1.6h3.2A2.2,2.2,0,0,1,15.2,4H16V0H2.4Z"/>
    </symbol>
    <symbol id="themes" viewBox="0 0 16 16">
        <title>themes</title><path d="M16,9V3H13V2a1,1,0,0,0-1-1H1A1,1,0,0,0,0,2V5A.94.94,0,0,0,1,6H12a.94.94,0,0,0,1-1V4h2V8H6v2H5.5a.47.47,0,0,0-.5.5v5a.47.47,0,0,0,.5.5h2a.47.47,0,0,0,.5-.5v-5a.47.47,0,0,0-.5-.5H7V9ZM12,3H1V2H12Z"/>
    </symbol>
    <symbol id="trash" viewBox="0 0 16 16">
        <title>trash</title><path d="M3.3,13.3c0,0.7,0.6,1.3,1.3,1.3h6.7c0.7,0,1.3-0.6,1.3-1.3v-8H3.3V13.3z M4.7,6.7h6.7l0,6.7H4.7V6.7z"/><polygon points="10,3.3 10,2 6,2 6,3.3 2,3.3 2,4.7 14,4.7 14,3.3    "/><rect x="6" y="8" width="1.3" height="4"/><rect x="8.7" y="8" width="1.3" height="4"/>
    </symbol>
    <symbol id="underline" viewBox="0 0 18 18">
         <title>underline</title>
         <rect x="4.6" y="13.3" width="9.6" height="1.2"/><path d="M10.6,2.5v1.2h1.2v4.8c0,1.4-1,2.4-2.4,2.4S7,9.9,7,8.5V3.7h1.2V2.5H4.6v1.2h1.2v4.8c0,2,1.6,3.6,3.6,3.6S13,10.5,13,8.5V3.7h1.2V2.5H10.6z"/>
    </symbol>
    <symbol id="eraser" viewBox="0 0 24 24">
        <title>eraser</title>
        <path d="M18.6,9.4L15.2,6c-0.5-0.5-1.4-0.5-1.9,0l-8.2,8.2c-0.5,0.5-0.5,1.4,0,1.9l1.4,1.4h5.8l6.3-6.3C19.1,10.8,19.1,9.9,18.6,9.4z M11.8,16.2H7l-1-1l3.4-3.4l3.4,3.4L11.8,16.2z"/>
    </symbol>
    <symbol id="widget" viewBox="0 0 20 20">
        <title>widget</title>
         <path d="M6.2,17.3 L5.9,17.3 C5.6,17.2 5.3,16.9 5.3,16.5 L5.3,10.7 L1.2,10.7 C0.9,10.7 0.6,10.5 0.4,10.2 C0.3,9.9 0.3,9.6 0.5,9.3 L7.2,1 C7.4,0.7 7.8,0.6 8.1,0.7 C8.4,0.8 8.7,1.1 8.7,1.5 L8.7,7.3 L12.9,7.3 C13.2,7.3 13.5,7.5 13.7,7.8 C13.9,8.1 13.8,8.4 13.6,8.7 L6.8,17 C6.7,17.2 6.4,17.3 6.2,17.3 L6.2,17.3 Z M2.9,9 L6.2,9 C6.7,9 7,9.4 7,9.8 L7,14.1 L11.1,9 L7.8,9 C7.4,9 7,8.6 7,8.2 L7,3.9 L2.9,9 L2.9,9 Z" ></path>
    </symbol>
    <symbol id="data-transfer" viewBox="0 0 18 18">
        <title>data-transfer</title><polygon xmlns="http://www.w3.org/2000/svg" points="11.5,8.5 12.5,9.5 16.1,6 12.5,2.5 11.5,3.5 13.2,5.3 4.5,5.3 4.5,6.8 13.2,6.8   "/><polygon xmlns="http://www.w3.org/2000/svg" points="6.5,9.5 5.5,8.5 1.9,12 5.5,15.5 6.5,14.5 4.8,12.8 13.5,12.8 13.5,11.3 4.8,11.3   "/>
    </symbol>
    <symbol id="preview" viewBox="0 0 20 15.4">
        <title>preview</title>
        <path d="M18.2,0h-2.7v1.8h2.7v5.4H1.8V1.8h2.7V0H1.8C0.9,0,0,0.9,0,1.8v11.7c0,1,0.8,1.8,1.8,1.8h5.4c0.3,0,0.7-0.2,0.9-0.5l1.8-4.3l1.8,4.3c0.1,0.3,0.4,0.5,0.9,0.5h5.4c1,0,1.8-0.8,1.8-1.8V1.8C20,0.9,19.1,0,18.2,0z M6.7,13.6H1.8V9h6.7L6.7,13.6z M13.3,13.6l-2-4.6H18v4.6H13.3z"/>
    </symbol>
    <symbol id="undo" viewBox="0 0 20 20">
        <title>undo</title>
        <path d="M4.1,18c1.4,1.1,3,1.7,4.7,2v-2.1c-1.2-0.1-2.3-0.6-3.3-1.4L4.1,18z"/><path d="M2.7,11.4H0.6c0.1,2,0.9,3.7,2,5.1l1.5-1.5C3.3,14.1,2.8,12.7,2.7,11.4z"/><path d="M4.4,5.9L3,4.6c-1.2,1.4-2,3-2.2,4.7h2.1C3.1,8.1,3.6,6.9,4.4,5.9z"/><path d="M14.6,2.7L17.2,0H9.9v7.5l3.2-3.3c2.3,1.2,4,3.6,4,6.4c0,3.6-2.7,6.7-6.2,7.2v2.1c4.6-0.5,8.3-4.4,8.3-9.3C19.1,7.3,17.3,4.3,14.6,2.7z"/>
    </symbol>
    <symbol id="redo" viewBox="0 0 20 20">
        <title>redo</title>
        <path d="M17.4,11.3c-0.1,1.4-0.6,2.6-1.4,3.7l1.5,1.5c1.1-1.5,1.9-3.2,2-5.1L17.4,11.3L17.4,11.3z"/><path d="M11.2,17.9V20c1.7-0.2,3.5-0.9,4.7-2l-1.4-1.5C13.6,17.1,12.5,17.6,11.2,17.9z"/><path d="M19.4,9.3c-0.2-1.7-1-3.4-2.2-4.7L15.7,6c0.9,1,1.4,2.1,1.6,3.4H19.4z"/><path d="M5.5,2.6c-2.7,1.6-4.6,4.6-4.6,8.1c0,4.8,3.6,8.7,8.3,9.2v-2.1C5.8,17.3,3,14.3,3,10.6c0-2.7,1.6-5.2,4-6.3l3.2,3.4V0H3L5.5,2.6z"/>
    </symbol>
    <symbol id="comments" viewBox="0 0 20 20">
        <title>comments</title>
        <path d="M4.1,19.9V16H2c-1.1,0-2-0.8-2-2V2C0,1,0.8,0,2,0h15.8c1.1,0,2,0.8,2,2v11.9c0,1.1-0.8,2-2,2H9.3L4.1,19.9zM2,2v11.9H6v2l2.6-2h9.3V2C17.9,2,2,2,2,2z"/>
    </symbol>
    <symbol id="settings" viewBox="0 0 20 20">
        <title>settings</title>
        <path d="M17.7,12h-2c-0.8,2.3-3,4-5.7,4c-3.4,0-6-2.7-6-6c0-2.7,1.7-4.8,4-5.7v-2C7.1,2.5,6.3,2.9,5.5,3.4L4,1.8L1.8,4l1.6,1.6C2.9,6.3,2.4,7.1,2.3,8H0v4h2.3c0.2,1,0.6,1.8,1.1,2.5L1.8,16L4,18.2l1.6-1.6c0.7,0.5,1.6,0.8,2.5,1.1V20h4v-2.3c1-0.2,1.8-0.6,2.5-1.1l1.6,1.6l2.2-2.2l-1.6-1.6C17.1,13.7,17.5,12.9,17.7,12z"/><path d="M20,5.9V4.1h-1.4c-0.1-0.4-0.2-0.6-0.4-0.8l1-1L17.8,1l-1,1c-0.2-0.1-0.6-0.2-0.8-0.4V0h-1.8v1.4c-0.4,0.1-0.6,0.2-0.8,0.4l-1-1l-1.3,1.3l1,1c-0.1,0.2-0.2,0.6-0.4,0.8H10v1.8h1.4c0.1,0.4,0.2,0.6,0.4,0.8l-1,1l1.3,1.3l1-1c0.2,0.1,0.6,0.2,0.8,0.4V10h1.8V8.6c0.4-0.1,0.6-0.2,0.8-0.4l1,1l1.3-1.3l-1-1c0.1-0.2,0.2-0.6,0.4-0.8C18.6,5.9,20,5.9,20,5.9zM15.1,7c-1.1,0-2-0.8-2-2s0.8-2,2-2c1.1,0,2,0.8,2,2S16.1,7,15.1,7z"/>
    </symbol>
    <symbol id="metadata" viewBox="0 0 20 20">
        <title>metadata</title>
        <path d="M10,20C4.5,20,0,15.5,0,10S4.5,0,10,0s10,4.5,10,10S15.5,20,10,20z M10,1.9c-4.5,0-8.1,3.6-8.1,8.1s3.6,8.1,8.1,8.1s8.1-3.6,8.1-8.1S14.5,1.9,10,1.9z"/><path d="M11,13V9c0-0.6-0.5-1-1-1H8V10h1v3H7v2h6v-2H11z"/><circle cx="10" cy="6" r="1.2"/>
    </symbol>
    <symbol id="info-solid" viewBox="0 0 14 14">
        <title>info-solid</title>
        <path d="M7,0C3.1,0,0,3.1,0,7c0,3.9,3.1,7,7,7s7-3.1,7-7C14,3.1,10.9,0,7,0z M7,3.3c0.5,0,0.9,0.4,0.9,0.9c0,0.5-0.4,0.9-0.9,0.9S6.1,4.7,6.1,4.2C6.1,3.7,6.5,3.3,7,3.3z M9.1,10.5H4.9V9.1h1.4V7H5.6V5.6H7c0.4,0,0.7,0.3,0.7,0.7v2.8h1.4V10.5z"/>
    </symbol>
    <symbol id="close-x" viewBox="0 0 20 20">
        <title>close-x</title>
        <polygon points="20,1.6 18.4,0 10,8.4 1.6,0 0,1.6 8.4,10 0,18.4 1.6,20 10,11.6 18.4,20 20,18.4 11.6,10"/>
    </symbol>
    <symbol id="image-button" viewBox="0 0 16 11">
        <title>image-button</title>
        <polygon points="10.3,1.7 5.5,9.3 3.3,5.6 0,10.8 16,10.8"/><circle cx="3.1" cy="2" r="2"/>
    </symbol>
    <symbol id="text-button" viewBox="0 0 13 16.2">
        <title>text-button</title>
        <path d="M12.1,0H0.9C0.3,0,0,0.3,0,0.8v2.4h1.6V1.6h4.1v13H3.2v1.6h6.5v-1.6H7.4v-13h4.1v1.6H13V0.8C13,0.3,12.7,0,12.1,0z"/>
    </symbol>
    <symbol id="accessibility" viewBox="0 0 17 17">
        <title>accessibility</title>
        <path d="M6.8,1.6C6.8,0.7,7.6,0,8.4,0C9.3,0,10,0.7,10,1.6S9.3,3.2,8.4,3.2C7.6,3.2,6.8,2.4,6.8,1.6z"/><path d="M10.6,5.3L16,3l-0.4-1L9,4.2H7.9L1.2,1.9L0.9,3l5.4,2.3v4.2l-2.2,7L5.2,17l3.1-6.9h0.4l3.1,6.9l1-0.4l-2.1-7V5.3z"/>
    </symbol>
    <symbol id="bin" viewBox="0 0 16 16">
        <title>bin</title>
        <path d="M3.3,13.3c0,0.7,0.6,1.3,1.3,1.3h6.7c0.7,0,1.3-0.6,1.3-1.3v-8H3.3V13.3z M4.7,6.7h6.7l0,6.7H4.7V6.7z"/>
        <polygon points="10,3.3 10,2 6,2 6,3.3 2,3.3 2,4.7 14,4.7 14,3.3   "/>
        <rect x="6" y="8" width="1.3" height="4"/>
        <rect x="8.7" y="8" width="1.3" height="4"/>
    </symbol>
    <symbol id="arrow-up" viewBox="0 0 10 6">
        <title>arrow-up</title>
        <path d="M0,5l0.9,0.9l4.1-4L9.1,6L10,5L5,0L0,5z"/>
    </symbol>
    <symbol id="arrow-down" viewBox="0 0 10 5.9">
        <title>arrow-down</title>
        <path d="M10,0.9L9.1,0L5,4.1L0.9,0L0,0.9l5,5L10,0.9z"/>
    </symbol>
    <symbol id="arrow-right" viewBox="0 0 4.5 9">
        <title>arrow-right</title><polygon points="0 9 4.5 4.5 0 0 0 9"/>
    </symbol>
    <symbol id="arrow-left" viewBox="0 0 18.3 18.3">
        <title>arrow-left</title>
        <path d="M9.2,0C4.1,0,0,4.1,0,9.2c0,5.1,4.1,9.2,9.2,9.2s9.2-4.1,9.2-9.2C18.3,4.1,14.2,0,9.2,0z M9.2,16.7
        c-4.1,0-7.5-3.4-7.5-7.5S5,1.7,9.2,1.7s7.5,3.4,7.5,7.5S13.3,16.7,9.2,16.7z"/><path d="M10.8,6.7H7L8.7,5L7.5,3.8L3.8,7.5l3.7,3.7L8.7,10L7,8.3h3.8c0.9,0,1.7,0.7,1.7,1.7c0,0.9-0.7,1.7-1.7,1.7H10
        v1.7h0.8c1.8,0,3.3-1.5,3.3-3.3S12.7,6.7,10.8,6.7z"/>
    </symbol>
    <symbol id="caret-down" viewBox="0 0 10 5">
        <title>caret-down</title>
        <path d="M0,0l5,5l5-5H0z"/>
    </symbol>
    <symbol id="caret-right" viewBox="0 0 5 10">
        <title>caret-right</title>
        <path d="M0,10l5-5L0,0V10z"/>
    </symbol>
    
    <symbol id="widget-media-gallery" viewBox="0 0 49 48">
        <title>widget-media-gallery</title>
        <path d="M5.9953125,13.5 C5.9953125,15.9855 8.00823867,18 10.4917969,18 C12.9753551,18 14.9882812,15.9855 14.9882812,13.5 C14.9882812,11.0145 12.9753551,9 10.4917969,9 C8.00823867,9 5.9953125,11.0145 5.9953125,13.5 L5.9953125,13.5 Z M44.9648438,25.5 L35.971875,16.5 L31.6717371,22.9545 L40.2105609,31.5 L35.971875,31.5 L20.9835937,16.5 L2.99765625,31.5 L2.99765625,3 L44.9648438,3 L44.9648438,25.5 L44.9648438,25.5 Z M0,34.5 L47.9625,34.5 L47.9625,0 L0,0 L0,34.5 L0,34.5 Z" ></path><polygon points="0 47.8617 14.0335277 47.8617 14.0335277 37.3617 0 37.3617"></polygon><polygon points="17.0536664 47.8617 31.0871941 47.8617 31.0871941 37.3617 17.0536664 37.3617"></polygon><polygon points="33.9289723 47.8617 47.9625 47.8617 47.9625 37.3617 33.9289723 37.3617"></polygon>
    </symbol>
    <symbol id="widget-mixed-assessment" viewBox="0 0 52 53">
        <title>widget-mixed-assessment</title>
        <rect x="23.0584644" y="33.5374451" width="21.2711086" height="6.54949505"></rect>
        <path d="M13.3283987,32.4734041 C15.4444862,32.4734041 17.1668831,34.2367296 17.1668831,36.4031011 C17.1668831,38.5694725 15.4444862,40.3327981 13.3283987,40.3327981 C11.2123112,40.3327981 9.48991438,38.5694725 9.48991438,36.4031011 C9.48991438,34.2367296 11.2123112,32.4734041 13.3283987,32.4734041 L13.3283987,32.4734041 Z M13.3283987,29.853606 C9.79502467,29.853606 6.93092481,32.7857646 6.93092481,36.4031011 C6.93092481,40.0204376 9.79502467,42.9525961 13.3283987,42.9525961 C16.8617728,42.9525961 19.7258726,40.0204376 19.7258726,36.4031011 C19.7258726,32.7857646 16.8617728,29.853606 13.3283987,29.853606 L13.3283987,29.853606 L13.3283987,29.853606 Z"></path><path d="M31.9873696,22.9232327 L25.5898956,22.9232327 L25.5898956,19.6484851 L31.9873696,19.6484851 L31.9873696,22.9232327 L31.9873696,22.9232327 Z M22.3911587,22.9232327 L15.9936848,22.9232327 L15.9936848,19.6484851 L22.3911587,19.6484851 L22.3911587,22.9232327 L22.3911587,22.9232327 Z M6.39747391,22.9232327 L6.39747391,9.82424257 L15.9936848,9.82424257 L15.9936848,13.0989901 L9.59621087,13.0989901 L9.59621087,19.6484851 L12.7949478,19.6484851 L12.7949478,22.9232327 L6.39747391,22.9232327 L6.39747391,22.9232327 Z M35.1861065,13.0989901 L28.7886326,13.0989901 L28.7886326,9.82424257 L35.1861065,9.82424257 L35.1861065,13.0989901 L35.1861065,13.0989901 Z M25.5898956,13.0989901 L19.1924217,13.0989901 L19.1924217,9.82424257 L25.5898956,9.82424257 L25.5898956,13.0989901 L25.5898956,13.0989901 Z M41.5835804,19.6484851 L41.5835804,13.0989901 L38.3848435,13.0989901 L38.3848435,9.82424257 L44.7823174,9.82424257 L44.7823174,22.9232327 L35.1861065,22.9232327 L35.1861065,19.6484851 L41.5835804,19.6484851 L41.5835804,19.6484851 Z M3.19873696,49.1212128 L47.9810543,49.1212128 L47.9810543,3.27474752 L3.19873696,3.27474752 L3.19873696,49.1212128 L3.19873696,49.1212128 Z M0,52.3959604 L0,52.3959604 L0,0 L51.1797913,0 L51.1797913,52.3959604 L0,52.3959604 L0,52.3959604 Z"></path>
    </symbol>
    <symbol id="widget-hotspot" viewBox="0 0 49 48">
        <title>widget-hotspot</title>
        <path d="M44.9648438,0 L2.99765625,0 C1.34894531,0 0,1.54285714 0,3.42857143 L0,44.5714286 C0,46.4571429 1.34894531,48 2.99765625,48 L44.9648438,48 C46.6135547,48 47.9625,46.4571429 47.9625,44.5714286 L47.9625,3.42857143 C47.9625,1.54285714 46.6135547,0 44.9648438,0 L44.9648438,0 Z M38.9695312,9.5 C38.9695312,11.984 36.9551062,14 34.4730469,14 C31.9909875,14 29.9765625,11.984 29.9765625,9.5 C29.9765625,7.016 31.9909875,5 34.4730469,5 C36.9551062,5 38.9695312,7.016 38.9695312,9.5 Z M5.9953125,42 L15.4878906,11 L29.3627846,34 L41.9671875,24 L41.9671875,42 L5.9953125,42 Z"></path><g transform="translate(3.996875, 20.000000)"><ellipse cx="7.99375" cy="8" rx="7.99375" ry="8"></ellipse><path d="M7.99375,1.6 C4.46211125,1.6 1.59875,4.4656 1.59875,8 C1.59875,11.5344 4.46211125,14.4 7.99375,14.4 C11.5253888,14.4 14.38875,11.5344 14.38875,8 C14.38875,4.4656 11.5253888,1.6 7.99375,1.6 L7.99375,1.6 Z M8.793125,8.8 L8.793125,12 L7.194375,12 L7.194375,8.8 L3.996875,8.8 L3.996875,7.2 L7.194375,7.2 L7.194375,4 L8.793125,4 L8.793125,7.2 L11.990625,7.2 L11.990625,8.8 L8.793125,8.8 L8.793125,8.8 Z" fill="#FFFFFF"></path></g><g transform="translate(28.977344, 2.000000)"><ellipse cx="7.99375" cy="8" rx="7.99375" ry="8"></ellipse><path d="M7.99375,1.6 C4.46211125,1.6 1.59875,4.4656 1.59875,8 C1.59875,11.5344 4.46211125,14.4 7.99375,14.4 C11.5253888,14.4 14.38875,11.5344 14.38875,8 C14.38875,4.4656 11.5253888,1.6 7.99375,1.6 L7.99375,1.6 Z M8.793125,8.8 L8.793125,12 L7.194375,12 L7.194375,8.8 L3.996875,8.8 L3.996875,7.2 L7.194375,7.2 L7.194375,4 L8.793125,4 L8.793125,7.2 L11.990625,7.2 L11.990625,8.8 L8.793125,8.8 L8.793125,8.8 Z" fill="#FFFFFF"></path>
        </g>
    </symbol>
    <symbol id="widget-flashcards" viewBox="0 0 49 48">
        <title>widget-flashcards</title>
        <path d="M38.9695312,0 L0,0 L0,33 L3.46067885,33 L4.56381635,40.8572308 L8.19236394,40.3476923 L10.385726,48 L47.9625,38.0769231 L39.2056543,7.512 L38.9695312,5.83569231 L38.9695312,0 L38.9695312,0 Z M2.99765625,30 L2.99765625,3 L35.971875,3 L35.971875,30 L2.99765625,30 L2.99765625,30 Z M6.2037649,33 L38.9695313,33 L38.9695313,25.3716923 L40.1150971,33.5335385 L6.87708462,37.7870769 L6.2037649,33 L6.2037649,33 Z M44.6014356,36.2123077 L12.2488846,44.6363077 L10.9114687,39.9636923 L43.1865418,35.8467692 L41.9229144,26.856 L44.6014356,36.2123077 L44.6014356,36.2123077 Z"></path><rect x="8.99296875" y="9" width="20.9835937" height="3"></rect><rect x="8.99296875" y="15" width="20.9835937" height="3"></rect><rect x="8.99296875" y="21" width="14.9882812" height="3"></rect>            
    </symbol>
    <symbol id="widget-layered-image" viewBox="0 0 49 48">
        <title>widget-layered-image</title>
        <path d="M23.2950173,3 L44.9648438,3 L44.9648438,37.5009231 L23.2950173,37.5009231 L23.2950173,40.5009231 L47.9625,40.5009231 L47.9625,0 L23.2950173,0 L23.2950173,3 L23.2950173,3 Z M32.9742188,15 C32.9742188,17.4849231 34.986799,19.5009231 37.4716255,19.5009231 C39.9546072,19.5009231 41.9690322,17.4867692 41.9690322,15 C41.9690322,12.5132308 39.9564519,10.4990769 37.4716255,10.4990769 C34.986799,10.5009231 32.9742188,12.5150769 32.9742188,15 L32.9742188,15 Z M41.9671875,34.5009231 L23.2950173,34.5009231 L23.2950173,20.5033846 L26.9789063,25.5009231 L32.9742188,21 L41.9671875,34.5009231 L41.9671875,34.5009231 Z"></path><polygon points="0 0 0 40.5009231 17.5432067 40.5009231 17.5432067 48 20.2973611 48 20.2973611 40.5009231 20.2973611 0"></polygon><polygon fill="#FFFFFF" points="17.5893245 34.5009231 5.9953125 34.5009231 14.9882812 10.5009231 17.6391317 13.8166154"></polygon>
    </symbol>
    
    <symbol id="widget-table-drag-drop" viewBox="0 0 49 48">
        <title>widget-table-drag-drop</title>
        <rect x="38.8902087" y="28.2295385" width="9.07229135" height="17.2670769"></rect><polygon points="36.1305202 35.7064615 43.0592567 35.7064615 43.0592567 38.0178462 36.1305202 38.0178462 36.1305202 41.4849231 31.5113625 36.8621538 36.1305202 32.2393846"></polygon><g transform="translate(38.738942, 4.692308)"><rect x="0.151266346" y="0.105846154" width="9.07229135" height="17.2670769"></rect></g><polygon points="36.1305202 12.7532308 43.0592567 12.7532308 43.0592567 15.0646154 36.1305202 15.0646154 36.1305202 18.5316923 31.5113625 13.9089231 36.1305202 9.28615385"></polygon><path d="M0,0 L0,48 L29.5153846,48 L29.5153846,0 L0,0 L0,0 Z M3.68942308,3.69230769 L12.9129808,3.69230769 L12.9129808,22.1538462 L3.68942308,22.1538462 L3.68942308,3.69230769 L3.68942308,3.69230769 Z M12.9129808,44.3076923 L3.68942308,44.3076923 L3.68942308,25.8461538 L12.9129808,25.8461538 L12.9129808,44.3076923 L12.9129808,44.3076923 Z M25.8259615,44.3076923 L16.6024038,44.3076923 L16.6024038,25.8461538 L25.8259615,25.8461538 L25.8259615,44.3076923 L25.8259615,44.3076923 Z M16.6024038,22.1538462 L16.6024038,3.69230769 L25.8259615,3.69230769 L25.8259615,22.1538462 L16.6024038,22.1538462 L16.6024038,22.1538462 Z"></path>            
    </symbol>
    <symbol id="widget-multiview-timeline" viewBox="0 0 49 48">
        <title>widget-multiview-timeline</title>
        <rect x="0" y="21.5353846" width="47.2246154" height="4.19261538"></rect><rect x="0" y="14.0566154" width="2.95153846" height="19.1483077"></rect><rect x="45.0109615" y="14.0566154" width="2.95153846" height="19.1483077"></rect><rect x="35.0495192" y="18.5261538" width="2.95153846" height="10.2073846"></rect><rect x="9.22355769" y="18.5261538" width="2.95153846" height="10.2073846"></rect><rect x="22.1365385" y="18.5261538" width="2.95153846" height="10.2073846"></rect><path d="M23.6123077,0 C20.6699928,0 18.2847808,2.35753846 18.2847808,5.26523077 C18.2847808,10.5304615 23.6123077,14.7415385 23.6123077,14.7415385 C23.6123077,14.7415385 28.9398346,10.5304615 28.9398346,5.26523077 C28.9398346,2.35753846 26.5546226,0 23.6123077,0 L23.6123077,0 Z M23.6123077,8.424 C21.8469188,8.424 20.4154226,7.00984615 20.4154226,5.26523077 C20.4154226,3.52061538 21.8469188,2.10646154 23.6123077,2.10646154 C25.3776966,2.10646154 26.8091928,3.52061538 26.8091928,5.26523077 C26.8091928,7.00984615 25.3776966,8.424 23.6123077,8.424 L23.6123077,8.424 Z"></path><path d="M36.5252885,0 C33.5829736,0 31.1977615,2.35753846 31.1977615,5.26523077 C31.1977615,10.5304615 36.5252885,14.7415385 36.5252885,14.7415385 C36.5252885,14.7415385 41.8528154,10.5304615 41.8528154,5.26523077 C41.8528154,2.35753846 39.4676034,0 36.5252885,0 L36.5252885,0 Z M36.5252885,8.424 C34.7598995,8.424 33.3284034,7.00984615 33.3284034,5.26523077 C33.3284034,3.52061538 34.7598995,2.10646154 36.5252885,2.10646154 C38.2906774,2.10646154 39.7221736,3.52061538 39.7221736,5.26523077 C39.7221736,7.00984615 38.2906774,8.424 36.5252885,8.424 L36.5252885,8.424 Z"></path><path d="M10.6993269,47.2615385 C13.6416418,47.2615385 16.0268538,44.904 16.0268538,41.9963077 C16.0268538,36.7310769 10.6993269,32.52 10.6993269,32.52 C10.6993269,32.52 5.3718,36.7310769 5.3718,41.9963077 C5.3718,44.904 7.75701202,47.2615385 10.6993269,47.2615385 L10.6993269,47.2615385 Z M10.6993269,38.8375385 C12.4647159,38.8375385 13.896212,40.2516923 13.896212,41.9963077 C13.896212,43.7409231 12.4647159,45.1550769 10.6993269,45.1550769 C8.93393798,45.1550769 7.50244183,43.7409231 7.50244183,41.9963077 C7.50244183,40.2516923 8.93393798,38.8375385 10.6993269,38.8375385 L10.6993269,38.8375385 Z"></path>            
    </symbol>
    <symbol id="widget-stepped-narrative" viewBox="0 0 49 48">
        <title>widget-stepped-narrative</title>
        <rect x="0" y="24.0129231" width="47.9625" height="5.808"></rect><rect x="0" y="12.0073846" width="47.9625" height="5.808"></rect><rect x="0" y="0" width="47.9625" height="5.808"></rect><path d="M30.4764793,40.8461538 C31.9393356,40.8461538 33.1291745,42.0369231 33.1291745,43.5009231 C33.1291745,44.9649231 31.9374909,46.1538462 30.4764793,46.1538462 C29.0136231,46.1538462 27.8237841,44.9630769 27.8237841,43.4990769 C27.8237841,42.0350769 29.0136231,40.8461538 30.4764793,40.8461538 L30.4764793,40.8461538 Z M30.4764793,39 C27.9934976,39 25.9790726,41.0141538 25.9790726,43.5009231 C25.9790726,45.9876923 27.9934976,48 30.4764793,48 C32.9594611,48 34.9738861,45.9858462 34.9738861,43.4990769 C34.9738861,41.0123077 32.9594611,39 30.4764793,39 L30.4764793,39 L30.4764793,39 Z"></path><path d="M43.4650933,48 C45.9499197,48 47.9625,45.9858462 47.9625,43.4990769 C47.9625,41.0123077 45.9499197,38.9981538 43.4650933,38.9981538 C40.9802668,38.9981538 38.9676865,41.0123077 38.9676865,43.4990769 C38.9676865,45.9858462 40.9821115,48 43.4650933,48 L43.4650933,48 Z"></path><path d="M17.4860207,48 C19.9690024,48 21.9834274,45.9858462 21.9834274,43.4990769 C21.9834274,41.0123077 19.9708471,38.9981538 17.4860207,38.9981538 C15.0011942,38.9981538 12.9886139,41.0123077 12.9886139,43.4990769 C12.9886139,45.9858462 15.0030389,48 17.4860207,48 L17.4860207,48 Z"></path><path d="M4.49740673,48 C6.98038846,48 8.99481346,45.9858462 8.99481346,43.4990769 C8.99481346,41.0123077 6.98223317,38.9981538 4.49740673,38.9981538 C2.01258029,38.9981538 0,41.0141538 0,43.4990769 C0,45.984 2.01258029,48 4.49740673,48 L4.49740673,48 Z"></path>            
    </symbol>
    <symbol id="widget-sequencing" viewBox="0 0 26 26">
        <title>widget-sequencing</title>
        <g><path d="M5.3,1.2v4h-4v-4L5.3,1.2 M6.5,0H0v6.5h6.5V0L6.5,0z"/></g><g><path d="M15,1.2v4h-4v-4L15,1.2 M16.2,0H9.8v6.5h6.5L16.2,0L16.2,0z"/></g><g><path d="M24.8,1.2v4h-4v-4L24.8,1.2 M26,0h-6.5v6.5H26V0L26,0z"/></g><g><g><polygon points="13,12.3 13,10 12,10 12,11.7 3,18 3,19.5 0,19.5 0,26 6.5,26 6.5,19.5 4,19.5 4,18.5"/><g><polygon points="15,11 12.9,7.3 10.7,11"/></g></g></g><g><g><polygon points="13,19.5 13,18 4,11.7 4,10 3,10 3,12.3 12,18.5 12,19.5 9.8,19.5 9.8,26 16.3,26 16.3,19.5"/><g><polygon points="5.3,11 3.1,7.3 1,11"/></g></g></g><g><g>
        <polygon points="23,19.5 23,10 22,10 22,19.5 19.5,19.5 19.5,26 26,26 26,19.5"/><g><polygon points="24.8,11 22.6,7.3 20.5,11"/></g></g></g>
    </symbol>
    <symbol id="widget-image-drag-drop" viewBox="0 0 49 48">
        <title>widget-image-drag-drop</title>
        <rect x="9.8" width="38.2" height="30"/><ellipse cx="41.1" cy="6.8" rx="4.1" ry="4.1"/><polygon fill="#FFFFFF" points="45.2,27.3 12.5,27.3 20.7,5.5 31.6,19.1 37.1,15 "/><rect y="43.5" width="18" height="4.5"/><rect y="37.5" width="22.5" height="4.5"/><ellipse cx="21.9" cy="18.8" rx="2.5" ry="2.5"/><rect x="17.6" y="17.3" transform="matrix(0.9356 0.3531 -0.3531 0.9356 11.2702 -4.548)" width="1.1" height="22.6"/>            
    </symbol>
    <symbol id="widget-2-column-match" viewBox="0 0 28 28">
        <title>widget-2-column-match</title>
         <g><rect x="19.5" class="st3" width="6.5" height="6.5"/></g><g><rect x="19.5" y="9.8" class="st3" width="6.5" height="6.5"/></g><g><rect x="19.5" y="19.5" class="st3" width="6.5" height="6.5"/></g><rect x="13.2" y="11.2" class="st4" width="3.7" height="3.7"/><rect x="0" y="9.8" class="st3" width="6.5" height="6.5"/><rect x="0" y="19.5" class="st3" width="6.5" height="6.5"/><path class="st3" d="M14.6,10.5L10.4,2H6.5V0H0v6.5h6.5V4h2.7l3.4,7v4.5h4.9v-4.9H14.6z M16.3,14.2h-2.5v-2.5h2.5V14.2z"/>          
    </symbol>
    <symbol id="widget-annotated-video" viewBox="0 0 49 48">
        <title>widget-annotated-video</title>
        <rect x="1" y="37.6467692" width="47.9625" height="4.25723077"></rect><rect transform="translate(2.498459, 39.776677) rotate(-90.000000) translate(-2.498459, -39.776677) " x="-5.71880837" y="38.2766769" width="16.4345351" height="3"></rect><rect transform="translate(47.463303, 39.776677) rotate(-90.000000) translate(-47.463303, -39.776677) " x="39.2460354" y="38.2766769" width="16.4345351" height="3"></rect><rect transform="translate(36.222184, 39.776123) rotate(-90.000000) translate(-36.222184, -39.776123) " x="31.0422342" y="38.2761231" width="10.3599" height="3"></rect><rect transform="translate(13.739762, 39.777046) rotate(-90.000000) translate(-13.739762, -39.777046) " x="8.55981236" y="38.2770462" width="10.3599" height="3"></rect><rect transform="translate(24.980881, 39.776677) rotate(-90.000000) translate(-24.980881, -39.776677) " x="19.8009311" y="38.2766769" width="10.3599" height="3"></rect><path d="M35.2599827,9.35153765 L35.2599827,4.00061538 C35.2599827,1.8 32.9485591,0 30.1206163,0 L6.13936635,0 C3.31142356,0 1,1.8 1,4.00061538 L1,22.9993846 C1,25.2 3.31142356,27 6.13752163,27 L30.1187716,27 C32.9467144,27 35.258138,25.2 35.258138,22.9993846 L35.2599827,22.9993846 L35.2599827,17.6484624 C35.3257308,17.7131837 35.3939851,17.7732504 35.4647457,17.8283077 L45.3284183,25.5046154 C47.3262409,27.0590769 48.9625,26.5329231 48.9625,24.3323077 L48.9625,2.66584615 C48.9625,0.465230769 47.3262409,-0.0590769231 45.3284183,1.49538462 L35.4647457,9.17169231 C35.3939851,9.22674955 35.3257308,9.28681629 35.2599827,9.35153765 Z"></path>            
    </symbol>
    <symbol id="widget-adaptive-scenario" viewBox="0 0 49 48">
        <title>widget-adaptive-scenario</title>
        <g transform="translate(-0.000000, 14.769231)"><rect fill="#FFFFFF" x="1.64179327" y="1.87384615" width="11.7046947" height="14.7138462"></rect><path d="M11.7046947,3.51692308 L11.7046947,14.9446154 L3.28358654,14.9446154 L3.28358654,3.51692308 L11.7046947,3.51692308 L11.7046947,3.51692308 Z M14.9882812,0.230769231 L0,0.230769231 L0,18.2307692 L14.9882812,18.2307692 L14.9882812,0.230769231 L14.9882812,0.230769231 L14.9882812,0.230769231 Z"></path></g><g transform="translate(16.602404, 0.000000)"><rect fill="#FFFFFF" x="2.28006346" y="1.49907692" width="10.4927192" height="15"></rect><path d="M11.2730322,3 L11.2730322,15 L3.77981394,15 L3.77981394,3 L11.2730322,3 L11.2730322,3 Z M14.2706885,0 L0.780312981,0 L0.780312981,18 L14.2688438,18 L14.2688438,0 L14.2706885,0 L14.2706885,0 Z"></path></g><g transform="translate(21.291046, 14.769231)"><rect fill="#FFFFFF" x="2.08698365" y="1.73169231" width="10.4927192" height="15"></rect><path d="M11.0799524,3.23076923 L11.0799524,15.2307692 L3.58673413,15.2307692 L3.58673413,3.23076923 L11.0799524,3.23076923 L11.0799524,3.23076923 Z M14.0776087,0.230769231 L0.589077885,0.230769231 L0.589077885,18.2307692 L14.0776087,18.2307692 L14.0776087,0.230769231 L14.0776087,0.230769231 L14.0776087,0.230769231 Z"></path></g><g transform="translate(25.825962, 29.538462)"><rect fill="#FFFFFF" x="2.30957885" y="1.96061538" width="10.4927192" height="15"></rect><path d="M11.3025476,3.46153846 L11.3025476,15.4615385 L3.80932933,15.4615385 L3.80932933,3.46153846 L11.3025476,3.46153846 L11.3025476,3.46153846 Z M14.3002038,0.461538462 L0.811673077,0.461538462 L0.811673077,18.4615385 L14.3002038,18.4615385 L14.3002038,0.461538462 L14.3002038,0.461538462 L14.3002038,0.461538462 Z"></path></g><polygon points="23.98125 25.1483077 13.9165038 25.1483077 13.9165038 22.8516923 23.98125 22.8516923"></polygon><polygon points="38.6171913 25.1483077 33.5663712 25.1483077 33.5663712 22.8516923 38.6171913 22.8516923 38.6171913 19.4067692 43.2049889 24 38.6153466 28.5932308 38.6153466 25.1483077"></polygon><polygon points="34.1197846 10.6116923 29.0689644 10.6116923 29.0689644 8.31507692 34.1197846 8.31507692 34.1197846 4.872 38.7094269 9.46523077 34.1197846 14.0584615"></polygon><polygon points="43.3728577 40.1483077 38.3220375 40.1483077 38.3220375 37.8516923 43.3728577 37.8516923 43.3728577 34.4067692 47.9625 39 43.3728577 43.5932308"></polygon>
    </symbol>
    <symbol id="widget-interactive-graph" viewBox="0 0 49 48">
        <title>widget-interactive-graph</title>
        <path d="M11.990625,12 L17.9859375,12 L17.9859375,36 L11.990625,36 L11.990625,12 L11.990625,12 Z M20.9835937,24 L26.9789062,24 L26.9789062,36 L20.9835937,36 L20.9835937,24 L20.9835937,24 Z M29.9765625,18 L35.971875,18 L35.971875,36 L29.9765625,36 L29.9765625,18 L29.9765625,18 Z"></path><path d="M44.9648438,3 L44.9648438,45 L2.99765625,45 L2.99765625,3 L44.9648438,3 L44.9648438,3 Z M47.9625,0 L0,0 L0,48 L47.9625,48 L47.9625,0 L47.9625,0 L47.9625,0 Z"></path>            
    </symbol>
    <symbol id="widget-line-reader" viewBox="0 0 49 34">
        <title>widget-line-reader</title>
        <rect x="20.9835937" y="3.82523077" width="26.9789063" height="3.74953846"></rect><rect x="20.9835937" y="11.3243077" width="18.7348904" height="3.74953846"></rect><rect x="20.9835937" y="26.3243077" width="18.7348904" height="3.74953846"></rect><rect x="20.9835937" y="18.8252308" width="26.9789063" height="3.74953846"></rect><polygon points="0 10.5341538 6.31629231 10.5341538 16.8422163 0 16.8422163 33.7107692 6.31629231 23.1766154 0 23.1766154"></polygon>            
    </symbol>
    <symbol id="navigation-previous" viewBox="0 0 18.3 18.3">
        <title>navigation-previous</title>
        <path d="M9.2,0C4.1,0,0,4.1,0,9.2c0,5.1,4.1,9.2,9.2,9.2s9.2-4.1,9.2-9.2C18.3,4.1,14.2,0,9.2,0z M9.2,16.7
        c-4.1,0-7.5-3.4-7.5-7.5S5,1.7,9.2,1.7s7.5,3.4,7.5,7.5S13.3,16.7,9.2,16.7z"/><path d="M10.8,6.7H7L8.7,5L7.5,3.8L3.8,7.5l3.7,3.7L8.7,10L7,8.3h3.8c0.9,0,1.7,0.7,1.7,1.7c0,0.9-0.7,1.7-1.7,1.7H10
        v1.7h0.8c1.8,0,3.3-1.5,3.3-3.3S12.7,6.7,10.8,6.7z"/>
    </symbol>
    <symbol id="navigation-next" viewBox="0 0 18.4 18.4">
        <title>navigation-next</title>
        <path d="M9.2,0C4.1,0,0,4.1,0,9.2c0,5.1,4.1,9.2,9.2,9.2s9.2-4.1,9.2-9.2C18.4,4.1,14.3,0,9.2,0z M9.2,16.7c-4.2,0-7.5-3.4-7.5-7.5S5,1.7,9.2,1.7s7.5,3.4,7.5,7.5S13.4,16.7,9.2,16.7z"/><path d="M10.9,3.8L9.7,5l1.7,1.7H7.5c-1.8,0-3.3,1.5-3.3,3.3s1.5,3.3,3.3,3.3h0.8v-1.7H7.5c-0.9,0-1.7-0.8-1.7-1.7c0-0.9,0.7-1.7,1.7-1.7h3.8L9.7,10l1.2,1.2l3.7-3.7L10.9,3.8z"/>
    </symbol>
    <symbol id="device-tablet" viewBox="0 0 14 18">
        <title>device-tablet</title>
        <path d="M11.7,0h-10C0.7,0,0,0.7,0,1.7V15c0,0.9,0.7,1.7,1.7,1.7h10c0.9,0,1.7-0.7,1.7-1.7V1.7C13.3,0.7,12.6,0,11.7,0z M11.7,1.7v0.8h-10V1.7H11.7z M11.7,4.2l0,8.3h-10V4.2H11.7L11.7,4.2z M1.7,15v-0.8h10V15H1.7z"/><ellipse cx="4.2" cy="6.7" rx="0.8" ry="0.8"/><ellipse cx="4.2" cy="9.2" rx="0.8" ry="0.8"/><ellipse cx="6.7" cy="6.7" rx="0.8" ry="0.8"/><ellipse cx="9.2" cy="6.7" rx="0.8" ry="0.8"/>
    </symbol>
    <symbol id="device-phone" viewBox="0 0 10 18">
        <title>device-phone</title>
        <path d="M9.2,0.8H2.5c-0.9,0-1.7,0.7-1.7,1.7v13.3c0,0.9,0.7,1.7,1.7,1.7h6.7c0.9,0,1.7-0.7,1.7-1.7V2.5C10.8,1.6,10.1,0.8,9.2,0.8z M9.2,2.5v1.7H2.5V2.5H9.2L9.2,2.5z M9.2,5.8v6.7H2.5V5.8H9.2L9.2,5.8z M2.5,15.8v-1.7h6.7v1.7H2.5z"/>
    </symbol>
    <symbol id="device-computer" viewBox="0 0 24 24">
        <title>device-computer</title>
        <path d="M22,3H2C0.9,3,0,3.9,0,5v13c0,1.1,0.9,2,2,2h9v2H7v2h10v-2h-4v-2h9c1.1,0,2-0.9,2-2V5C24,3.9,23.1,3,22,3zM22,5l0,10H2V5H22z M2,18v-1h20v1H2z"/>
    </symbol>
    <symbol id="flip-down" viewBox="0 0 24 24">
        <title>flip-down</title>
        <path d="M18.6,6.8v0.4l-1.4-1.4l-1.5,1.5l4.1,4.1L24,7.3l-1.5-1.5l-1.4,1.4V6.8c0-3.6-2.1-5.8-5.5-5.8h-1.1v2.2h1.1C16.2,3.2,18.6,3.2,18.6,6.8z"/><path d="M19.7,13.1h-6.6v2.2h6.6v5.5H4.4v-2.2H2.2v2.2c0,1.2,1,2.2,2.2,2.2h15.3c1.2,0,2.2-1,2.2-2.2v-5.5C21.9,14.1,21,13.1,19.7,13.1z"/><path d="M8.8,16.4c1.2,0,2.2-1,2.2-2.2v-11C11,2,10,1,8.8,1H2.2C1,1,0,2,0,3.2v11c0,1.2,1,2.2,2.2,2.2C2.2,16.4,8.8,16.4,8.8,16.4z
        M2.2,3.2h6.6v11H2.2V3.2z"/>
    </symbol>
    <symbol id="flip-up" viewBox="0 0 24 24">
        <title>flip-up</title>
        <path d="M17.7,3.7h-0.4l1.5-1.5l-1.6-1.6L12.7,5l4.5,4.5l1.6-1.9L17.3,6h0.4c3.9,0,3.9,2.7,3.9,3.6v1.2H24V9.6
        C23.9,5.9,21.6,3.7,17.7,3.7z"/><path d="M2.4,2.5h6v7.2h2.4V2.5c0-1.3-1-2.4-2.4-2.4h-6C1.2,0.1,0,1.1,0,2.5v16.7c0,1.3,1,2.4,2.4,2.4h2.4v-2.4H2.4
        V2.5z"/><path d="M21.5,12H9.5c-1.3,0-2.4,1-2.4,2.4v7.2c0,1.3,1,2.4,2.4,2.4h11.9c1.3,0,2.4-1,2.4-2.4v-7.2
        C23.9,13,22.8,12,21.5,12z M9.5,21.5v-7.2h11.9v7.2H9.5z"/>
    </symbol>
    <symbol id="favorite-outlined" viewBox="0 0 20 20">
        <title>favorite-outlined</title>
        <path d="M16,19.9c-0.2,0-0.4,0-0.6-0.1L10,16.2l-5.4,3.6c-0.4,0.2-0.8,0.2-1.2,0C3,19.6,2.9,19.1,3,18.7l1.8-6.5L0.3,7.7C0,7.5-0.1,7,0,6.6S0.5,6,1,6h5.4l2.8-5.4c0.4-0.7,1.4-0.7,1.8,0L13.6,6H19c0.4,0,0.7,0.2,1,0.6C20,7,20,7.5,19.7,7.7l-4.6,4.6l1.8,6.5c0.1,0.4,0,0.8-0.4,1.1C16.3,19.9,16.2,19.9,16,19.9z M10,14c0.2,0,0.4,0,0.6,0.1l3.7,2.5l-1.2-4.4c-0.1-0.4,0-0.7,0.2-1L16.6,8H13c-0.4,0-0.7-0.2-0.8-0.6L10,3.3L7.8,7.5C7.7,7.8,7.4,8,7,8H3.4l3.2,3.2c0.2,0.2,0.4,0.6,0.2,1l-1.2,4.4l3.7-2.5C9.6,14.1,9.7,14,10,14z"/>
    </symbol>
    <symbol id="favorite-solid" viewBox="0 0 16 16">
        <title>favorite-solid</title>
        <path d="M15.9,5.3c-0.1-0.3-0.4-0.5-0.7-0.5h-4.3L8.7,0.4c-0.3-0.5-1.2-0.5-1.4,0L5.1,4.8H0.8C0.5,4.8,0.2,5,0.1,5.3C-0.1,5.6,0,5.9,0.2,6.1l3.7,3.7l-1.5,5.1c-0.1,0.3,0,0.7,0.3,0.9C3,16,3.4,16,3.6,15.8L8,12.9l4.4,2.9c0.1,0.1,0.3,0.1,0.4,0.1c0.2,0,0.3-0.1,0.5-0.2c0.3-0.2,0.4-0.5,0.3-0.9l-1.5-5.1l3.7-3.7C16,5.9,16.1,5.6,15.9,5.3z"/>
    </symbol>
    <symbol id="add" viewBox="0 0 14 14">
        <title>add</title>
        <path d="M14,6 L8,6 L8,0 L6,0 L6,6 L0,6 L0,8 L6,8 L6,14 L8,14 L8,8 L14,8 L14,6 L14,6 Z"></path>
    </symbol>
    <symbol id="thumbnail-view" viewBox="0 0 16 16">
        <title>thumbnail-view</title>
        <path d="M0,0 L4,0 L4,4 L0,4 L0,0 L0,0 Z M6,0 L10,0 L10,4 L6,4 L6,0 L6,0 Z M12,0 L16,0 L16,4 L12,4 L12,0 L12,0 Z M0,6 L4,6 L4,10 L0,10 L0,6 L0,6 Z M6,6 L10,6 L10,10 L6,10 L6,6 L6,6 Z M12,6 L16,6 L16,10 L12,10 L12,6 L12,6 Z M0,12 L4,12 L4,16 L0,16 L0,12 L0,12 Z M6,12 L10,12 L10,16 L6,16 L6,12 L6,12 Z M12,12 L16,12 L16,16 L12,16 L12,12 L12,12 Z"></path>
    </symbol>
    <symbol id="list-view" viewBox="0 0 14 10">
        <title>list-view</title>
        <path d="M0,0 L14,0 L14,2 L0,2 L0,0 L0,0 Z"></path>
        <path d="M0,4 L14,4 L14,6 L0,6 L0,4 L0,4 Z"></path>
        <path d="M0,8 L14,8 L14,10 L0,10 L0,8 L0,8 Z"></path>
    </symbol>
    <symbol id="sort" viewBox="0 0 22 22">
        <title>sort</title>
        <path d="M7.4,6 L8.6,4.7 L4.3,0.4 L0,4.7 L1.3,6 L3.4,3.9 L3.4,14.5 L5.2,14.5 L5.2,3.9 L7.4,6 Z"></path><path d="M14.7,12 L12.6,14.1 L12.6,3.5 L10.8,3.5 L10.8,14.1 L8.6,12 L7.4,13.3 L11.7,17.6 L16,13.3 L14.7,12 Z"></path>
    </symbol>
    <symbol id="tag" viewBox="0 0 19 19" >
        <title>tag</title>
        <path d="M10.1,19 C9.9,19 9.7,18.9 9.5,18.8 L0.8,10.1 C0.7,9.9 0.6,9.7 0.6,9.5 L0.6,4 C0.6,3.6 1,3.2 1.4,3.2 L6.9,3.2 C7.1,3.2 7.3,3.3 7.5,3.4 L16.2,12.1 C16.5,12.4 16.5,12.9 16.2,13.2 L10.7,18.7 C10.5,18.9 10.3,19 10.1,19 L10.1,19 Z M2.2,9.2 L10.1,17.1 L14.5,12.7 L6.6,4.8 L2.2,4.8 L2.2,9.2 L2.2,9.2 Z" id="Shape"></path>
        <circle id="Oval" cx="4.5" cy="7.1" r="1.6"></circle>
        <path d="M16.6,10.1 L8.2,1.6 L3,1.6 L3,0 L8.5,0 C8.7,0 8.9,0.1 9.1,0.2 L17.8,8.9 L16.6,10.1 L16.6,10.1 Z" id="Shape"></path>
    </symbol>
    <symbol id="upload-icon" viewBox="0 0 181.5 136.12">
        <title>upload-icon</title>
        <path d="M-90.26-75.93-130-36.23h28.36v34h22.69v-34h28.36Z" transform="translate(181 138.31)"/><path d="M-22.87-81.14a28.31,28.31,0,0,0,.67-6.13,28.39,28.39,0,0,0-28.36-28.36,28.66,28.66,0,0,0-7.29,1,34.08,34.08,0,0,0-32.41-23.64,34.12,34.12,0,0,0-32.67,24.48,45.6,45.6,0,0,0-12.7-1.79A45.42,45.42,0,0,0-181-70.26,45.35,45.35,0,0,0-169.79-40.4a45.39,45.39,0,0,0,27.7,15.06,6.56,6.56,0,0,0,.81.06,5.66,5.66,0,0,0,5.6-4.87,5.68,5.68,0,0,0-4.81-6.42,34,34,0,0,1-20.76-11.3,34,34,0,0,1-8.39-22.38,34.07,34.07,0,0,1,34-34,33.8,33.8,0,0,1,24.31,10.21,5.68,5.68,0,0,0,8,.08,5.68,5.68,0,0,0,.08-8,45.8,45.8,0,0,0-9.18-7.24A22.74,22.74,0,0,1-90.24-127a22.71,22.71,0,0,1,22.69,22.69A22.92,22.92,0,0,1-68-99.69,5.67,5.67,0,0,0-63.6-93a5.69,5.69,0,0,0,1.15.11,5.66,5.66,0,0,0,5.55-4.54,33.91,33.91,0,0,0,.68-5.88,17,17,0,0,1,5.68-1,17,17,0,0,1,17,17,16.89,16.89,0,0,1-1,5.67h-4.7a5.67,5.67,0,0,0-5.67,5.67,5.67,5.67,0,0,0,5.67,5.67h11.34a17,17,0,0,1,17,17,17,17,0,0,1-17,17H-39.2a5.67,5.67,0,0,0-5.67,5.67,5.67,5.67,0,0,0,5.67,5.67h11.34A28.38,28.38,0,0,0,.5-53.23a28.39,28.39,0,0,0-23.36-27.9Z" transform="translate(181 138.31)"/>
    </symbol>
    <symbol id="upload" viewBox="0 0 166 166" >
        <title>upload</title>
       
        <path d="M103.8,13.8c-19.8,0-37.1,11.8-44.5,29.4c-3.5-1.2-7.1-1.8-10.8-1.8c-19.1,0-34.6,15.5-34.6,34.6
            c0,16.7,11.9,30.7,27.7,33.9V95.6c-8-2.9-13.8-10.5-13.8-19.5c0-11.4,9.3-20.8,20.8-20.8c3.9,0,7.8,1.1,11.2,3.3
            c1.9,1.2,4.3,1.4,6.3,0.6c2.1-0.8,3.6-2.7,4.2-4.8c3.6-15.7,17.5-26.7,33.6-26.7c19.1,0,34.6,15.5,34.6,34.6
            c0,11.3-5.5,21.2-13.8,27.5v16.2c16.3-7.8,27.7-24.4,27.7-43.7C152.2,35.6,130.4,13.8,103.8,13.8z"/>
        <polygon points="115.6,98.9 83,66.3 50.4,98.9 60.2,108.6 76.1,92.8 76.1,152.2 89.9,152.2 89.9,92.8 105.8,108.6
            "/>
      
    </symbol>
    <symbol id="logo-mark" viewBox="0 0 35.6 26.4">
        <title>logo-mark</title>
        <path d="M35.6,12.9l-2.9-7.2l0,0l0,0l0,0l0,0l0,0l0,0l0,0l0,0l0,0l0,0l0,0l0,0l0,0l0,0l0,0l0,0l0,0l0,0l0,0l0,0l0,0l0,0l0,0l0,0l0,0l0,0l0,0l0,0l-8.4-4.3l0,0l0,0c0,0,0,0-0.1,0l0,0c0,0,0,0-0.1,0l0,0L14.9,0l0,0l0,0l0,0h-0.1l0,0l0,0l0,0L4.2,4.4c0,0.1-0.1,0.1-0.2,0.2L0.1,10C0,10.1,0,10.2,0,10.3v10.8l0,0l0,0l0,0l0,0v0.1l0,0l0,0l0,0l0,0l0,0l0,0c0,0,0,0.1,0.1,0.1l0,0l0,0l0,0l0,0l0,0c0,0,0,0,0.1,0l0,0c0,0,0,0,0.1,0l0,0l0,0l0,0h0.1l0,0l0,0H11l11.8,5.1l0,0l0,0l0,0l0,0l0,0l0,0l0,0l0,0l0,0l0,0c0,0,0,0,0.1,0l0,0l0,0l0,0c0,0,0,0,0.1,0l0,0l0,0l0,0l0,0l0,0l0,0l0,0l0,0l0,0l0,0l0,0l4.7-7.6l7.4-5.4C35.6,13.3,35.7,13.1,35.6,12.9z M23.1,24.6l-1.7-10.5c0-0.1,0.1-0.2,0.2-0.1l5.3,4.6c0,0,0.1,0.1,0,0.2l-3.6,5.9C23.3,24.7,23.1,24.7,23.1,24.6z M1.1,11.2l3.8,2c0.1,0,0.1,0.1,0,0.2l-3.8,5.8c-0.1,0.1-0.2,0.1-0.2-0.1v-7.8C0.9,11.2,1,11.1,1.1,11.2z M4.2,6.3L5,11.9C5,12,4.9,12.1,4.8,12l-3.5-1.9c-0.1,0-0.1-0.1,0-0.2L4,6.3C4.1,6.2,4.2,6.2,4.2,6.3zM21,2l-6.8,2.1c-0.1,0-0.2-0.1-0.1-0.2l1-2.8C15.1,1,15.2,1,15.2,1L21,1.7C21.1,1.8,21.1,1.9,21,2z M31.1,6l-9.3,5.3c-0.1,0.1-0.2,0-0.2-0.1l2.6-8.8c0-0.1,0.1-0.1,0.2-0.1l6.8,3.5C31.2,5.9,31.2,6,31.1,6z M6,11.7L5.1,5.5c0-0.1,0-0.1,0.1-0.1h6.7c0.1,0,0.2,0.1,0.1,0.2l-5.7,6.3C6.1,11.9,6,11.8,6,11.7z M12.5,6.7l-1.7,12.8c0,0.1-0.2,0.1-0.2,0.1l-4.2-6.4c0,0,0-0.1,0-0.2l5.9-6.5C12.4,6.5,12.5,6.6,12.5,6.7z M13.7,6.1l6.2,6.3c0,0,0,0.1,0,0.2l-8,7.1c-0.1,0.1-0.2,0-0.2-0.1l1.8-13.4C13.5,6.1,13.7,6,13.7,6.1z M14.3,5L23,2.4c0.1,0,0.2,0.1,0.2,0.2l-2.6,8.9c0,0.1-0.1,0.1-0.2,0.1l-6.1-6.2C14.2,5.2,14.2,5.1,14.3,5z M12.8,4.4H7.4c-0.1,0-0.2-0.2,0-0.2l6.3-2.6c0.1,0,0.2,0.1,0.2,0.2l-1,2.6C12.9,4.4,12.9,4.4,12.8,4.4zM5.8,14.1l4.2,6.4c0.1,0.1,0,0.2-0.1,0.2H1.6c-0.1,0-0.2-0.1-0.1-0.2l4.1-6.4C5.7,14,5.8,14,5.8,14.1z M20.4,13.7l1.9,11.7c0,0,0,0.1-0.1,0.1l-10.1-4.4c-0.1,0-0.1-0.1,0-0.2l8.1-7.2C20.3,13.5,20.4,13.6,20.4,13.7z M21.7,12.5l9.4-5.4c0.1-0.1,0.2,0,0.2,0.1l-3.8,10.3c0,0.1-0.1,0.1-0.2,0.1l-5.7-4.9C21.6,12.7,21.6,12.5,21.7,12.5z M28.8,16.8l3.4-9.3c0-0.1,0.2-0.1,0.2,0l2.1,5.3c0,0.1,0,0.1,0,0.1L29,17C28.9,17,28.8,16.9,28.8,16.8z"/>
    </symbol>
    <symbol id="logo-letters" viewBox="0 0 62.7 17.1">
        <title>logo-letters</title>
        <path d="M7.2,12.2c0,0.2-0.1,0.4-0.2,0.6C6.8,12.9,6.7,13,6.4,13c-0.1,0-0.2,0-0.3-0.1c-0.2-0.1-0.3-0.1-0.3-0.2L2.9,8.6L1.4,10v2.3c0,0.2-0.1,0.4-0.2,0.6c-0.1,0.2-0.3,0.2-0.5,0.2S0.3,13,0.2,12.9C0.1,12.8,0,12.6,0,12.3V0.8c0-0.2,0.1-0.4,0.2-0.6C0.3,0,0.5,0,0.7,0s0.4,0.1,0.5,0.2s0.2,0.4,0.2,0.6V8l4-3.9c0.2-0.2,0.3-0.2,0.5-0.2c0.3,0,0.5,0.1,0.6,0.2c0.1,0.2,0.2,0.3,0.2,0.5S6.6,5.1,6.4,5.3L3.9,7.5l3,4.2C7.1,11.9,7.2,12.1,7.2,12.2z"/><path d="M14.9,4.2c0.5,0.3,0.8,0.7,1,1.2s0.4,1.1,0.4,1.7v5c0,0.2-0.1,0.4-0.2,0.6c-0.2,0.2-0.3,0.2-0.5,0.2s-0.4-0.1-0.5-0.2c-0.2-0.2-0.2-0.3-0.2-0.6V7.4c0-1.4-0.6-2.1-1.9-2.1c-0.6,0-1.1,0.2-1.5,0.5C11,6.1,10.6,6.5,10.2,7v5.3c0,0.2-0.1,0.4-0.2,0.6c-0.2,0.2-0.3,0.2-0.5,0.2S9.1,13,9,12.9c-0.2-0.2-0.2-0.3-0.2-0.6V4.7c0-0.2,0.1-0.4,0.2-0.6c0.2-0.2,0.3-0.2,0.5-0.2S9.9,4,10,4.1c0.2,0.2,0.2,0.3,0.2,0.6v0.7c0.4-0.5,0.9-0.9,1.4-1.2c0.5-0.3,1-0.4,1.7-0.4C13.9,3.8,14.5,3.9,14.9,4.2z"/><path d="M24.6,4.4c0.6,0.4,1.2,0.9,1.5,1.6c0.4,0.7,0.5,1.5,0.5,2.4s-0.2,1.7-0.5,2.4c-0.4,0.7-0.9,1.3-1.5,1.6C24,12.8,23.2,13,22.3,13s-1.6-0.2-2.3-0.6c-0.6-0.4-1.2-0.9-1.5-1.6C18.2,10.1,18,9.3,18,8.4s0.2-1.7,0.5-2.4s0.9-1.3,1.5-1.6s1.4-0.6,2.3-0.6S23.9,4,24.6,4.4z M23.6,11.3c0.4-0.2,0.8-0.6,1-1.1C24.9,9.7,25,9.1,25,8.4s-0.1-1.3-0.4-1.8s-0.6-0.8-1-1s-0.9-0.3-1.3-0.3c-0.5,0-0.9,0.1-1.3,0.3c-0.4,0.2-0.8,0.6-1,1c-0.3,0.5-0.4,1.1-0.4,1.8s0.1,1.4,0.4,1.8c0.3,0.5,0.6,0.8,1,1.1c0.4,0.2,0.9,0.3,1.3,0.3C22.8,11.6,23.2,11.5,23.6,11.3z"/><path d="M39.7,4.1c0.2,0.2,0.2,0.3,0.2,0.6c0,0.1,0,0.2,0,0.3l-2.4,7.3c-0.1,0.2-0.2,0.4-0.4,0.5c-0.2,0.1-0.4,0.2-0.6,0.2c-0.2,0-0.4-0.1-0.6-0.2c-0.2-0.1-0.3-0.3-0.4-0.5l-1.8-5.9l-1.8,5.8c-0.1,0.2-0.2,0.4-0.4,0.5c-0.2,0.1-0.4,0.2-0.6,0.2s-0.4-0.1-0.6-0.2s-0.3-0.3-0.4-0.5l-2.4-7.3c0-0.1,0-0.2,0-0.3c0-0.2,0.1-0.4,0.2-0.6c0.2-0.2,0.3-0.2,0.5-0.2c0.2,0,0.3,0,0.4,0.1c0.1,0.1,0.2,0.2,0.3,0.3l2,6.8l2-6.6c0.1-0.2,0.2-0.3,0.3-0.5c0.2-0.1,0.3-0.2,0.5-0.2c0.2,0,0.4,0.1,0.5,0.2c0.2,0.1,0.3,0.3,0.3,0.5l2,6.6l2-6.8c0-0.1,0.1-0.2,0.3-0.3c0.1-0.1,0.3-0.1,0.4-0.1C39.3,3.9,39.5,3.9,39.7,4.1z"/><path d="M47.6,4.3c0.6,0.4,1.1,0.9,1.5,1.6s0.6,1.6,0.6,2.6c0,0.9-0.2,1.8-0.6,2.5c-0.4,0.7-0.9,1.2-1.5,1.6s-1.3,0.6-2,0.6c-1.1,0-2.1-0.5-2.9-1.3v0.5c0,0.2-0.1,0.4-0.2,0.6c-0.2,0.2-0.3,0.2-0.5,0.2c-0.2,0-0.4-0.1-0.5-0.2c-0.2-0.2-0.2-0.3-0.2-0.6V0.8c0-0.2,0.1-0.4,0.2-0.6C41.6,0,41.8,0,42,0c0.2,0,0.4,0.1,0.6,0.2c0.1,0.2,0.1,0.3,0.1,0.6v4.3c0.8-0.9,1.8-1.3,2.9-1.3C46.3,3.8,47,3.9,47.6,4.3z M47.4,10.8c0.5-0.5,0.8-1.3,0.8-2.3s-0.3-1.8-0.8-2.3s-1.2-0.8-2-0.8c-0.5,0-1,0.1-1.5,0.4c-0.5,0.2-0.9,0.6-1.2,1v3.7c0.3,0.4,0.8,0.7,1.2,1c0.5,0.2,1,0.4,1.5,0.4C46.2,11.6,46.9,11.3,47.4,10.8z"/><path d="M52.9,0.2c0.2,0.2,0.2,0.3,0.2,0.6v11.4c0,0.2-0.1,0.4-0.2,0.6C52.8,13,52.6,13,52.4,13s-0.4-0.1-0.5-0.2c-0.1-0.1-0.2-0.3-0.2-0.6V0.8c0-0.2,0.1-0.4,0.2-0.6C52,0,52.2,0,52.4,0S52.8,0,52.9,0.2z"/><path d="M62.7,5l-4.6,11.6c-0.2,0.4-0.4,0.5-0.7,0.5c-0.2,0-0.4-0.1-0.5-0.2c-0.2-0.2-0.2-0.4-0.2-0.6c0-0.1,0-0.2,0-0.3l1.1-3l-3.2-8.1c0-0.1-0.1-0.2-0.1-0.3c0-0.2,0.1-0.4,0.2-0.6c0.2-0.2,0.3-0.2,0.5-0.2c0.2,0,0.3,0,0.4,0.1s0.2,0.2,0.3,0.4l2.6,6.7l2.7-6.7c0.2-0.4,0.4-0.5,0.7-0.5c0.2,0,0.4,0.1,0.5,0.2c0.2,0.2,0.2,0.3,0.2,0.6C62.8,4.8,62.7,4.9,62.7,5z"/>
    </symbol>
    <symbol id="user" viewBox="0 0 24 24">
        <title>user</title>
        <path d="M12,12c-3.3,0-6-2.7-6-6s2.7-6,6-6s6,2.7,6,6S15.3,12,12,12z M12,3c-1.7,0-3,1.4-3,3s1.3,3,3,3s3-1.3,3-3S13.7,3,12,3z"/><path d="M24,24H0v-1.5c0-5.2,5-9,12-9s12,3.8,12,9V24z M3.3,21h17.5c-0.9-2.7-4.2-4.5-8.7-4.5S4.2,18.3,3.3,21z"/>
    </symbol>
    <symbol id="user-group" viewBox="0 0 24 21.8">
        <title>user-group</title>
        <path d="M21.1,18.5c0.8-0.7,1.2-1.6,1.2-2.7c0-2-1.8-3.8-3.8-3.8s-3.8,1.8-3.8,3.8c0,1.1,0.5,2,1.2,2.7c-1.6,0.5-2.9,1.6-2.9,3.3h2.2c0-0.7,1.5-1.5,3.3-1.5s3.3,0.8,3.3,1.5H24C24,20.3,22.7,19,21.1,18.5z M18.5,14.1c1,0,1.6,0.7,1.6,1.6s-0.7,1.6-1.6,1.6c-1,0-1.6-0.7-1.6-1.6S17.7,14.1,18.5,14.1z"/><path d="M8.1,18.5c0.8-0.7,1.2-1.6,1.2-2.7c0-2-1.8-3.8-3.8-3.8s-3.8,1.8-3.8,3.8c0,1.1,0.5,2,1.2,2.7C1.3,19,0,20.1,0,21.8h2.2c0-0.7,1.5-1.5,3.3-1.5s3.3,0.8,3.3,1.5h2.2C10.9,20.3,9.7,19,8.1,18.5z M5.5,14.1c1,0,1.6,0.7,1.6,1.6s-0.7,1.6-1.6,1.6s-1.6-0.7-1.6-1.6C3.8,14.8,4.7,14.1,5.5,14.1z"/><path d="M15.3,9.8h2.2c0-1.5-1.2-2.6-2.9-3.3c0.8-0.7,1.2-1.6,1.2-2.7C15.8,1.8,14,0,12,0S8.2,1.6,8.2,3.8c0,1.1,0.5,2,1.2,2.7C7.8,7.1,6.6,8.2,6.6,9.8h2.2c0-0.7,1.5-1.5,3.3-1.5S15.3,9.1,15.3,9.8z M12,2.2c1,0,1.6,0.7,1.6,1.6S13,5.4,12,5.4c-1,0-1.6-0.7-1.6-1.6S11.2,2.2,12,2.2z"/>
    </symbol>
    <symbol id="key" viewBox="0 0 24 22.9">
        <title>key</title>
        <path d="M22.3,8.6L24,6.9l-3.4-3.4l1.7-1.7L20.6,0L9.1,11.4l0,0c-0.9-0.6-1.9-0.9-3-0.9c-3.4,0-6.1,2.7-6.1,6.1s2.7,6.1,6.1,6.1s6.1-2.7,6.1-6.1c0-1.4-0.4-2.6-1.3-3.7l4.4-4.4l3.4,3.4l1.7-1.7l-3.4-3.4l1.6-1.7L22.3,8.6z M6,20.3c-2,0-3.7-1.6-3.7-3.7S4,13,6,13s3.7,1.6,3.7,3.7S8,20.3,6,20.3z"/>
    </symbol>
    <symbol id="linkedin" viewBox="0 0 17 16.3">
        <title>linkedin</title>
        <path d="M3.9,5.3H0.2v11h3.7V5.3z M4.1,1.9C4.1,0.8,3.4,0,2,0C0.8,0,0,0.8,0,1.9c0,1,0.8,1.9,2,1.9l0,0C3.4,3.8,4.1,3,4.1,1.9z M17,10c0-3.4-1.8-5-4.2-5C10.9,5,10,6.1,9.5,6.8l0,0V5.3H5.9c0,0,0,1,0,11h3.7v-6.1c0-0.3,0-0.6,0.1-0.9c0.3-0.6,0.9-1.3,1.8-1.3c1.3,0,1.8,1,1.8,2.4v5.9H17V10z"/>
    </symbol>
    <symbol id="google" viewBox="0 0 15.7 16">
        <title>google</title>
        <path d="M8,6.9h7.6c0.1,0.5,0.1,0.9,0.1,1.3c0,1.5-0.3,2.9-0.9,4c-0.6,1.2-1.5,2.1-2.7,2.8c-1.2,0.7-2.5,1-4,1c-1.1,0-2.1-0.2-3.1-0.6c-1-0.4-1.8-1-2.6-1.7s-1.3-1.6-1.7-2.6S0,9.1,0,8c0-1.1,0.2-2.1,0.6-3.1c0.4-1,1-1.8,1.7-2.6C3,1.6,3.9,1.1,4.9,0.6S6.9,0,8,0c2.1,0,3.9,0.7,5.4,2.1l-2.2,2.1C10.3,3.4,9.3,2.9,8,2.9c-0.9,0-1.7,0.2-2.5,0.7C4.8,4.1,4.2,4.7,3.7,5.5C3.3,6.2,3,7.1,3,8c0,0.9,0.2,1.8,0.7,2.5s1,1.4,1.8,1.8c0.8,0.5,1.6,0.7,2.5,0.7c0.6,0,1.2-0.1,1.7-0.2s0.9-0.4,1.2-0.6c0.3-0.2,0.6-0.5,0.9-0.9c0.2-0.3,0.4-0.6,0.5-0.9c0.1-0.3,0.2-0.6,0.2-0.8H8V6.9z"/>
    </symbol>
    <symbol id="no-entry" viewBox="0 0 16.8 20">
        <title>no-entry</title>
        <path d="M15.5,3.2L0,18.7L1.3,20l2.5-2.5c1,0.7,2.2,1,3.5,1c3.5,0,6.2-2.8,6.2-6.2V7.9l3.4-3.4L15.5,3.2z M11.7,12.5c0,2.4-2,4.4-4.4,4.4c-0.8,0-1.6-0.2-2.2-0.6l5.5-5.5h1C11.7,10.7,11.7,12.5,11.7,12.5z"/><polygon points="10.8,5.4 10.8,1.8 9,1.8 9,7.2 "/><path d="M8.2,8.2V0H6.4v8.9H5.4V1.8H3.7v10.7H2.8V9.7H1v2.6c0,0.8,0.2,1.6,0.5,2.3L8.2,8.2z"/>
    </symbol>
    <symbol id="building" viewBox="0 0 24 24">
        <title>building</title>
        <path d="M22.8,0h-8.4c-0.6,0-1.2,0.6-1.2,1.2v21.6c0,0.6,0.6,1.2,1.2,1.2h8.4c0.6,0,1.2-0.6,1.2-1.2V1.2C24,0.6,23.4,0,22.8,0z M21.6,21.6h-1.2v-2.4h-3.6v2.4h-1.2V2.4h6V21.6z"/><path d="M9.6,2.4H7.2V0H4.8v2.4H1.2C0.5,2.4,0,3,0,3.6v19.2C0,23.4,0.6,24,1.2,24h8.4c0.6,0,1.2-0.6,1.2-1.2V3.6C10.8,3,10.2,2.4,9.6,2.4z M8.4,21.6H7.2v-2.4H3.6v2.4H2.4V4.8h6V21.6z"/><rect x="16.8" y="4.8" width="3.6" height="2.4"/><rect x="3.6" y="7.2" width="3.6" height="2.4"/><rect x="3.6" y="12" width="3.6" height="2.4"/><rect x="16.8" y="9.6" width="3.6" height="2.4"/><rect x="16.8" y="14.4" width="3.6" height="2.4"/>
    </symbol>
</svg>